<svg width="1600" height="620" viewBox="0 0 1600 620" fill="none" xmlns="http://www.w3.org/2000/svg">
<g opacity="0.4">
<path d="M795.263 413.258L779.379 503.27C777.866 510.078 771.058 516.129 764.251 516.129H627.341L609.188 619H827.789C884.519 619 938.98 572.859 948.813 516.129L966.967 413.258H795.263Z" stroke="white"/>
<path d="M718.138 1.75391L699.984 104.625H836.894C843.701 104.625 848.996 110.676 847.483 117.484L831.599 207.496H1002.55L1020.7 104.625C1031.29 47.8946 993.469 1.75391 936.739 1.75391H718.138Z" stroke="white"/>
<path d="M588.027 618.226H519.194C462.464 618.226 424.644 572.086 434.477 515.355L507.092 103.871C516.925 47.1407 571.386 1 628.117 1H696.949L588.027 618.226Z" stroke="white"/>
<path d="M1395.11 413.258L1379.22 503.27C1377.71 510.078 1370.9 516.129 1364.09 516.129H1227.19L1209.03 619H1427.63C1484.36 619 1538.82 572.859 1548.66 516.129L1566.81 413.258H1395.11Z" stroke="white"/>
<path d="M1317.18 1.75391L1299.02 104.625H1435.93C1442.74 104.625 1448.04 110.676 1446.52 117.484L1430.64 207.496H1601.59L1619.74 104.625C1630.33 47.8946 1592.51 1.75391 1535.78 1.75391H1317.18Z" stroke="white"/>
<path d="M1187.09 618.226H1119.01C1062.28 618.226 1024.46 572.086 1034.3 515.355L1106.91 103.871C1116.75 47.1407 1171.21 1 1227.94 1H1296.77L1187.09 618.226Z" stroke="white"/>
<path d="M-182 618.224H-11.0524L97.8699 1.75391H-95.0134L-84.4237 65.2919L-182 618.224Z" stroke="white"/>
<path d="M422.363 104.625C432.196 47.8946 394.376 1.75391 337.646 1.75391H119.045L100.891 104.625H237.8C244.608 104.625 249.903 110.676 248.39 117.484L216.621 297.508C215.108 304.316 208.3 310.367 201.493 310.367H64.5834L46.4297 413.238H128.121L160.647 618.98H332.351L299.825 413.238H305.877C339.915 413.238 372.44 385.251 378.491 351.213L422.363 104.625Z" stroke="white"/>
</g>
</svg>
