<svg width="1601" height="620" viewBox="0 0 1601 620" fill="none" xmlns="http://www.w3.org/2000/svg">
<g opacity="0.4">
<path d="M795.755 413.367L779.871 503.379C778.358 510.187 771.55 516.238 764.743 516.238H627.833L609.68 619.109H828.281C885.011 619.109 939.472 572.969 949.305 516.238L967.459 413.367H795.755Z" stroke="#DFDDDD"/>
<path d="M718.63 1.86328L700.477 104.734H837.386C844.193 104.734 849.488 110.786 847.976 117.593L832.091 207.605H1003.04L1021.19 104.734C1031.78 48.004 993.962 1.86328 937.231 1.86328H718.63Z" stroke="#DFDDDD"/>
<path d="M588.519 618.336H519.686C462.956 618.336 425.136 572.195 434.969 515.465L507.584 103.98C517.417 47.2501 571.878 1.10938 628.609 1.10938H697.442L588.519 618.336Z" stroke="#DFDDDD"/>
<path d="M1395.6 413.367L1379.71 503.379C1378.2 510.187 1371.39 516.238 1364.59 516.238H1227.68L1209.52 619.109H1428.12C1484.85 619.109 1539.32 572.969 1549.15 516.238L1567.3 413.367H1395.6Z" stroke="#DFDDDD"/>
<path d="M1317.67 1.86328L1299.52 104.734H1436.42C1443.23 104.734 1448.53 110.786 1447.01 117.593L1431.13 207.605H1602.08L1620.23 104.734C1630.82 48.004 1593 1.86328 1536.27 1.86328H1317.67Z" stroke="#DFDDDD"/>
<path d="M1187.58 618.336H1119.51C1062.78 618.336 1024.96 572.195 1034.79 515.465L1107.4 103.98C1117.24 47.2501 1171.7 1.10938 1228.43 1.10938H1297.26L1187.58 618.336Z" stroke="#DFDDDD"/>
<path d="M-181.508 618.333H-10.5603L98.3621 1.86328H-94.5212L-83.9315 65.4013L-181.508 618.333Z" stroke="#DFDDDD"/>
<path d="M422.855 104.734C432.688 48.004 394.868 1.86328 338.138 1.86328H119.537L101.383 104.734H238.292C245.1 104.734 250.395 110.786 248.882 117.593L217.113 297.618C215.6 304.425 208.793 310.477 201.985 310.477H65.0756L46.9219 413.348H128.614L161.139 619.09H332.843L300.318 413.348H306.369C340.407 413.348 372.932 385.361 378.984 351.322L422.855 104.734Z" stroke="#DFDDDD"/>
</g>
</svg>
