<svg width="1806" height="620" viewBox="0 0 1806 620" fill="none" xmlns="http://www.w3.org/2000/svg">
<path d="M978.263 413.258L962.379 503.27C960.866 510.078 954.058 516.129 947.251 516.129H810.341L792.188 619H1010.79C1067.52 619 1121.98 572.859 1131.81 516.129L1149.97 413.258H978.263Z" stroke="white"/>
<path d="M901.138 1.75391L882.984 104.625H1019.89C1026.7 104.625 1032 110.676 1030.48 117.484L1014.6 207.496H1185.55L1203.7 104.625C1214.29 47.8946 1176.47 1.75391 1119.74 1.75391H901.138Z" stroke="white"/>
<path d="M771.027 618.226H702.194C645.464 618.226 607.644 572.086 617.477 515.355L690.092 103.871C699.925 47.1407 754.386 1 811.117 1H879.949L771.027 618.226Z" stroke="white"/>
<path d="M1578.11 413.258L1562.22 503.27C1560.71 510.078 1553.9 516.129 1547.09 516.129H1410.19L1392.03 619H1610.63C1667.36 619 1721.82 572.859 1731.66 516.129L1749.81 413.258H1578.11Z" stroke="white"/>
<path d="M1500.18 1.75391L1482.02 104.625H1618.93C1625.74 104.625 1631.04 110.676 1629.52 117.484L1613.64 207.496H1784.59L1802.74 104.625C1813.33 47.8946 1775.51 1.75391 1718.78 1.75391H1500.18Z" stroke="white"/>
<path d="M1370.09 618.226H1302.01C1245.28 618.226 1207.46 572.086 1217.3 515.355L1289.91 103.871C1299.75 47.1407 1354.21 1 1410.94 1H1479.77L1370.09 618.226Z" stroke="white"/>
<path d="M1 618.224H171.948L280.87 1.75391H87.9866L98.5763 65.2919L1 618.224Z" stroke="white"/>
<path d="M605.363 104.625C615.196 47.8946 577.376 1.75391 520.646 1.75391H302.045L283.891 104.625H420.8C427.608 104.625 432.903 110.676 431.39 117.484L399.621 297.508C398.108 304.316 391.3 310.367 384.493 310.367H247.583L229.43 413.238H311.121L343.647 618.98H515.351L482.825 413.238H488.877C522.915 413.238 555.44 385.251 561.491 351.213L605.363 104.625Z" stroke="white"/>
</svg>
