<svg width="1526" height="220" viewBox="0 0 1526 220" fill="none" xmlns="http://www.w3.org/2000/svg">
<g clip-path="url(#clip0_1621_34466)">
<path d="M345.799 146.685L340.347 178.75C340.126 180.041 339.456 181.21 338.456 182.047C337.456 182.884 336.193 183.334 334.894 183.315H286.421L279.987 220H357.195C367.369 219.641 377.125 215.83 384.883 209.182C392.641 202.534 397.948 193.439 399.943 183.37L406.322 146.685H345.799Z" fill="white"/>
<path d="M318.476 0.00290342L312.042 36.6879H360.46C361.029 36.6652 361.595 36.7748 362.115 37.0083C362.635 37.2417 363.094 37.5927 363.458 38.0341C363.822 38.4755 364.08 38.9954 364.213 39.5535C364.345 40.1117 364.349 40.6932 364.223 41.2529L358.77 73.3179H419.293L425.727 36.6329C426.755 32.1475 426.742 27.4835 425.69 23.0039C424.638 18.5243 422.576 14.3499 419.664 10.8055C416.752 7.26115 413.068 4.44247 408.899 2.56882C404.73 0.695163 400.189 -0.18292 395.629 0.00290342H318.476Z" fill="white"/>
<path d="M272.627 220H248.2C243.636 220.197 239.09 219.327 234.915 217.456C230.741 215.586 227.052 212.767 224.138 209.22C221.223 205.673 219.161 201.494 218.114 197.009C217.067 192.525 217.063 187.857 218.102 183.37L243.728 36.63C245.733 26.5251 251.071 17.4031 258.874 10.7511C266.676 4.09907 276.483 0.309429 286.694 0L310.795 0L272.627 220Z" fill="white"/>
<path d="M557.681 146.685L552.229 178.75C552.008 180.041 551.337 181.21 550.338 182.047C549.338 182.884 548.075 183.334 546.776 183.315H498.303L491.869 220H569.077C579.251 219.641 589.006 215.83 596.765 209.182C604.523 202.534 609.829 193.439 611.825 183.37L618.204 146.685H557.681Z" fill="white"/>
<path d="M530.358 -0.000639878L523.924 36.6844H572.506C573.075 36.6617 573.641 36.7713 574.161 37.0047C574.681 37.2382 575.14 37.5892 575.504 38.0306C575.868 38.4719 576.126 38.9918 576.259 39.55C576.391 40.1082 576.395 40.6896 576.269 41.2494L570.816 73.3144H631.339L637.773 36.6294C638.805 32.1299 638.79 27.4506 637.729 22.958C636.669 18.4653 634.592 14.2813 631.661 10.7335C628.73 7.18564 625.025 4.37038 620.835 2.50814C616.645 0.645891 612.085 -0.212782 607.512 -0.000639878H530.358Z" fill="white"/>
<path d="M484.338 220H460.075C455.529 220.162 451.008 219.266 446.862 217.381C442.715 215.495 439.055 212.672 436.166 209.129C433.276 205.587 431.234 201.42 430.198 196.953C429.163 192.486 429.162 187.838 430.195 183.37L455.822 36.63C457.817 26.5608 463.124 17.4659 470.882 10.8179C478.64 4.16991 488.396 0.358196 498.57 0L522.779 0L484.338 220Z" fill="white"/>
<path d="M-0.00878906 220H60.5143L99.0092 0H30.9071L34.4512 22.77L-0.00878906 220Z" fill="white"/>
<path d="M213.678 36.6266C214.701 32.1553 214.69 27.5064 213.647 23.0397C212.604 18.573 210.557 14.4082 207.663 10.8672C204.77 7.32629 201.107 4.50421 196.959 2.61924C192.812 0.73427 188.29 -0.163063 183.743 -0.0033572H106.535L100.156 36.6816H148.574C149.143 36.659 149.709 36.7686 150.229 37.002C150.749 37.2355 151.208 37.5865 151.572 38.0278C151.936 38.4692 152.194 38.9891 152.326 39.5473C152.459 40.1055 152.462 40.6869 152.337 41.2466L141.104 105.432C140.884 106.723 140.213 107.892 139.213 108.729C138.214 109.566 136.951 110.016 135.652 109.997H87.2333L80.7993 146.682H109.698L121.312 219.997H181.835L170.33 146.682H172.62C178.725 146.448 184.576 144.152 189.233 140.162C193.89 136.173 197.084 130.721 198.301 124.682L213.678 36.6266Z" fill="white"/>
<path fill-rule="evenodd" clip-rule="evenodd" d="M666.625 220H1487.56L1526 0H705.065L666.625 220ZM890.597 183.32C887.202 183.673 883.772 183.192 880.601 181.918C877.43 180.644 874.611 178.615 872.386 176.005C870.462 172.969 869.191 169.56 868.655 165.997C868.12 162.435 868.332 158.799 869.278 155.325L885.145 64.4647C886.275 56.6341 890.004 49.4215 895.723 44.0047C901.322 39.0648 908.571 36.4507 916.006 36.6897H955.482C958.878 36.3366 962.307 36.8174 965.479 38.0912C968.65 39.365 971.469 41.3939 973.694 44.0047C975.605 47.0458 976.869 50.4548 977.404 54.015C977.939 57.5752 977.734 61.2087 976.802 64.6847L960.88 155.545C959.828 163.341 956.197 170.55 950.575 176.005C944.878 180.951 937.529 183.527 930.019 183.21L890.597 183.32ZM902.484 148.505C901.884 151.915 903.193 153.675 906.41 153.675H924.676C926.067 153.677 927.406 153.143 928.42 152.182C929.434 151.221 930.045 149.905 930.128 148.505L943.487 72.0547C944.087 68.6447 942.778 66.8847 939.561 66.8847H921.459C920.021 66.8096 918.612 67.311 917.54 68.2795C916.467 69.248 915.818 70.6051 915.733 72.0547L902.484 148.505ZM846.668 65.5554L841.215 95.5304L826.82 108.565L836.635 121.545L831.182 154.545C830.159 162.41 826.504 169.687 820.823 175.17C815.153 180.134 807.822 182.73 800.321 182.43H734.891L757.464 53.2904L753.429 37.7804H825.621C828.968 37.4568 832.344 37.9472 835.465 39.2103C838.586 40.4735 841.362 42.4726 843.56 45.0404C845.455 48.0578 846.709 51.4385 847.244 54.9695C847.779 58.5004 847.583 62.1048 846.668 65.5554ZM810.899 88.3254L813.625 72.8154C814.225 69.3504 812.916 67.6454 809.699 67.6454H786.635L782.11 93.4954H805.228C806.657 93.5556 808.051 93.0475 809.112 92.0805C810.173 91.1135 810.814 89.765 810.899 88.3254ZM800.648 147.175L803.865 128.585C804.465 125.12 803.156 123.415 799.939 123.415H776.875L771.804 152.345H794.923C796.361 152.421 797.769 151.919 798.842 150.951C799.914 149.982 800.564 148.625 800.648 147.175ZM1073.76 109.998L1115.86 37.6729H1082.16L1056.53 85.4129L1047.54 37.6729H1013.84L1030.85 109.998L988.539 182.323H1022.13L1047.86 134.363L1056.8 182.323H1090.5L1073.76 109.998ZM1162.57 182.323H1130.84L1153.41 53.1829L1149.37 37.6729H1187.87L1162.57 182.323ZM1328.12 37.6729H1296.33L1283.03 112.473L1261.49 37.6729H1224.91L1228.94 53.1829L1206.37 182.323H1238.1L1251.19 107.523L1273 182.323H1302.82L1328.12 37.6729ZM1367.97 182.325C1364.61 182.644 1361.23 182.151 1358.1 180.889C1354.97 179.626 1352.19 177.63 1349.98 175.065C1348.06 172.037 1346.78 168.64 1346.24 165.088C1345.69 161.537 1345.89 157.91 1346.81 154.44L1362.35 65.5597C1363.39 57.6989 1367.04 50.4264 1372.71 44.9347C1378.38 39.9715 1385.71 37.3752 1393.21 37.6747H1460.61L1440 67.6497H1398.56C1397.17 67.6471 1395.83 68.1811 1394.81 69.1422C1393.8 70.1033 1393.19 71.4189 1393.1 72.8197L1380.07 147.18C1379.47 150.645 1380.78 152.35 1384 152.35H1406.74L1417.15 93.4997H1448.94L1433.4 182.325H1367.97Z" fill="white"/>
</g>
<defs>
<clipPath id="clip0_1621_34466">
<rect width="1526" height="220" fill="white"/>
</clipPath>
</defs>
</svg>
