<svg width="346" height="124" viewBox="0 0 346 124" fill="none" xmlns="http://www.w3.org/2000/svg">
<path d="M187.343 82.2885L184.388 100.098C184.092 101.633 182.91 102.554 181.433 102.554H155.134L151.883 123.127H193.844C204.777 123.127 215.119 113.916 216.892 102.554L220.438 81.9814H187.343V82.2885Z" fill="white"/>
<path d="M172.566 0.307617L169.021 20.8806H195.32C196.797 20.8806 197.684 22.1089 197.388 23.3371L194.433 41.1466H227.233L230.483 20.8806C232.552 9.51941 225.164 0.307617 214.527 0.307617H172.566Z" fill="white"/>
<path d="M147.741 123.132H134.739C123.806 123.132 116.714 113.92 118.487 102.559L132.375 20.5736C134.148 9.51941 144.491 0.307617 155.424 0.307617H168.426L147.741 123.132Z" fill="white"/>
<path d="M302.287 82.2885L299.332 100.098C299.036 101.633 297.854 102.554 296.377 102.554H270.078L266.532 123.127H308.492C319.425 123.127 329.768 113.916 331.541 102.554L335.087 81.9814H302.287V82.2885Z" fill="white"/>
<path d="M287.512 0.30706L283.966 20.8801H310.265C311.742 20.8801 312.629 22.1083 312.333 23.3365L309.378 41.146H342.178L345.724 20.573C347.497 9.21179 340.405 0 329.472 0H287.512V0.30706Z" fill="white"/>
<path d="M262.395 123.132H249.394C238.46 123.132 231.368 113.92 233.141 102.559L247.03 20.5736C248.803 9.51941 259.44 0.307617 270.078 0.307617H283.08L262.395 123.132Z" fill="white"/>
<path d="M0 123.132H32.7999L53.78 0.307617H16.8432L18.6162 12.8971L0 123.132Z" fill="white"/>
<path d="M115.829 20.8806C117.602 9.51941 110.51 0.307617 99.577 0.307617H57.6168L54.0708 20.8806H80.3699C81.8473 20.8806 82.7338 22.1089 82.4383 23.3371L76.2329 59.2631C75.9374 60.7984 74.7555 61.7196 73.278 61.7196H47.2745L43.7285 82.2926H59.3897L65.5951 123.132H98.395L92.1897 82.2926H93.3716C99.8725 82.2926 106.078 76.7655 107.26 70.0102L115.829 20.8806Z" fill="white"/>
</svg>
