<svg width="1520" height="195" viewBox="0 0 1520 195" fill="none" xmlns="http://www.w3.org/2000/svg">
<g clip-path="url(#clip0_1640_51905)">
<path d="M309.578 129.723L304.696 158.08C304.499 159.222 303.898 160.256 303.003 160.996C302.109 161.736 300.978 162.134 299.815 162.117H256.418L250.658 194.56H319.78C328.888 194.243 337.622 190.872 344.568 184.993C351.514 179.114 356.265 171.07 358.051 162.166L363.762 129.723H309.578Z" fill="white"/>
<path d="M285.108 0.00105987L279.348 32.4439H322.695C323.204 32.4239 323.711 32.5208 324.177 32.7273C324.642 32.9337 325.053 33.2441 325.379 33.6345C325.705 34.0248 325.936 34.4846 326.055 34.9782C326.173 35.4718 326.176 35.9861 326.064 36.4811L321.182 64.8382H375.367L381.127 32.3953C382.047 28.4286 382.035 24.3039 381.094 20.3423C380.152 16.3807 378.306 12.689 375.699 9.55449C373.091 6.41999 369.793 3.92725 366.061 2.27026C362.329 0.613269 358.263 -0.163275 354.181 0.00105987H285.108Z" fill="white"/>
<path d="M244.07 194.56H222.201C218.116 194.734 214.045 193.964 210.308 192.311C206.571 190.657 203.268 188.164 200.659 185.027C198.05 181.89 196.204 178.194 195.267 174.228C194.329 170.262 194.325 166.133 195.255 162.166L218.198 32.3942C219.992 23.4579 224.772 15.3907 231.757 9.50787C238.743 3.62507 247.522 0.273647 256.664 0L278.241 0L244.07 194.56Z" fill="white"/>
<path d="M499.293 129.723L494.411 158.08C494.214 159.222 493.613 160.256 492.718 160.996C491.823 161.736 490.693 162.134 489.53 162.117H446.133L440.373 194.56H509.495C518.603 194.243 527.337 190.872 534.283 184.993C541.229 179.114 545.98 171.07 547.766 162.166L553.477 129.723H499.293Z" fill="white"/>
<path d="M474.823 0.00156693L469.062 32.4445H512.557C513.066 32.4244 513.572 32.5213 514.038 32.7278C514.503 32.9342 514.915 33.2446 515.24 33.635C515.566 34.0253 515.797 34.4851 515.916 34.9787C516.035 35.4723 516.038 35.9866 515.925 36.4816L511.043 64.8387H565.228L570.988 32.3958C571.912 28.4166 571.898 24.2785 570.949 20.3053C570 16.3322 568.14 12.632 565.516 9.49441C562.892 6.35685 559.575 3.86714 555.824 2.22024C552.073 0.573335 547.99 -0.186044 543.896 0.00156693H474.823Z" fill="white"/>
<path d="M433.631 194.56H411.908C407.839 194.703 403.791 193.911 400.079 192.244C396.367 190.576 393.09 188.079 390.503 184.946C387.916 181.813 386.088 178.129 385.161 174.178C384.234 170.227 384.233 166.117 385.158 162.166L408.101 32.3942C409.887 23.4894 414.638 15.4462 421.584 9.56694C428.529 3.68771 437.264 0.316775 446.372 0L468.046 0L433.631 194.56Z" fill="white"/>
<path d="M0 194.56H54.1846L88.648 0H27.6781L30.8511 20.137L0 194.56Z" fill="white"/>
<path d="M191.304 32.3956C192.22 28.4413 192.21 24.3301 191.277 20.3799C190.343 16.4297 188.51 12.7464 185.919 9.61493C183.329 6.48346 180.05 3.98771 176.337 2.32071C172.623 0.653713 168.575 -0.139855 164.504 0.00138258H95.3825L89.6711 32.4443H133.019C133.528 32.4242 134.035 32.5212 134.5 32.7276C134.965 32.9341 135.377 33.2445 135.703 33.6348C136.028 34.0251 136.259 34.4849 136.378 34.9785C136.497 35.4722 136.5 35.9864 136.387 36.4814L126.331 93.2443C126.134 94.3863 125.533 95.4205 124.638 96.1607C123.743 96.9008 122.613 97.2982 121.45 97.2814H78.102L72.3418 129.724H98.2137L108.611 194.561H162.796L152.496 129.724H154.546C160.012 129.517 165.25 127.487 169.42 123.959C173.589 120.431 176.448 115.609 177.538 110.268L191.304 32.3956Z" fill="white"/>
<path d="M309.578 129.723L304.696 158.08C304.499 159.222 303.898 160.256 303.003 160.996C302.109 161.736 300.978 162.134 299.815 162.117H256.418L250.658 194.56H319.78C328.888 194.243 337.622 190.872 344.568 184.993C351.514 179.114 356.265 171.07 358.051 162.166L363.762 129.723H309.578Z" fill="white"/>
<path d="M285.108 0.00105987L279.348 32.4439H322.695C323.204 32.4239 323.711 32.5208 324.177 32.7273C324.642 32.9337 325.053 33.2441 325.379 33.6345C325.705 34.0248 325.936 34.4846 326.055 34.9782C326.173 35.4718 326.176 35.9861 326.064 36.4811L321.182 64.8382H375.367L381.127 32.3953C382.047 28.4286 382.035 24.3039 381.094 20.3423C380.152 16.3807 378.306 12.689 375.699 9.55449C373.091 6.41999 369.793 3.92725 366.061 2.27026C362.329 0.613269 358.263 -0.163275 354.181 0.00105987H285.108Z" fill="white"/>
<path d="M244.07 194.56H222.201C218.116 194.734 214.045 193.964 210.308 192.311C206.571 190.657 203.268 188.164 200.659 185.027C198.05 181.89 196.204 178.194 195.267 174.228C194.329 170.262 194.325 166.133 195.255 162.166L218.198 32.3942C219.992 23.4579 224.772 15.3907 231.757 9.50787C238.743 3.62507 247.522 0.273647 256.664 0L278.241 0L244.07 194.56Z" fill="white"/>
<path d="M499.293 129.723L494.411 158.08C494.214 159.222 493.613 160.256 492.718 160.996C491.823 161.736 490.693 162.134 489.53 162.117H446.133L440.373 194.56H509.495C518.603 194.243 527.337 190.872 534.283 184.993C541.229 179.114 545.98 171.07 547.766 162.166L553.477 129.723H499.293Z" fill="white"/>
<path d="M474.823 0.00156693L469.062 32.4445H512.557C513.066 32.4244 513.572 32.5213 514.038 32.7278C514.503 32.9342 514.915 33.2446 515.24 33.635C515.566 34.0253 515.797 34.4851 515.916 34.9787C516.035 35.4723 516.038 35.9866 515.925 36.4816L511.043 64.8387H565.228L570.988 32.3958C571.912 28.4166 571.898 24.2785 570.949 20.3053C570 16.3322 568.14 12.632 565.516 9.49441C562.892 6.35685 559.575 3.86714 555.824 2.22024C552.073 0.573335 547.99 -0.186044 543.896 0.00156693H474.823Z" fill="white"/>
<path d="M433.631 194.56H411.908C407.839 194.703 403.791 193.911 400.079 192.244C396.367 190.576 393.09 188.079 390.503 184.946C387.916 181.813 386.088 178.129 385.161 174.178C384.234 170.227 384.233 166.117 385.158 162.166L408.101 32.3942C409.887 23.4894 414.638 15.4462 421.584 9.56694C428.529 3.68771 437.264 0.316775 446.372 0L468.046 0L433.631 194.56Z" fill="white"/>
<path d="M0 194.56H54.1846L88.648 0H27.6781L30.8511 20.137L0 194.56Z" fill="white"/>
<path d="M191.304 32.3956C192.22 28.4413 192.21 24.3301 191.277 20.3799C190.343 16.4297 188.51 12.7464 185.919 9.61493C183.329 6.48346 180.05 3.98771 176.337 2.32071C172.623 0.653713 168.575 -0.139855 164.504 0.00138258H95.3825L89.6711 32.4443H133.019C133.528 32.4242 134.035 32.5212 134.5 32.7276C134.965 32.9341 135.377 33.2445 135.703 33.6348C136.028 34.0251 136.259 34.4849 136.378 34.9785C136.497 35.4722 136.5 35.9864 136.387 36.4814L126.331 93.2443C126.134 94.3863 125.533 95.4205 124.638 96.1607C123.743 96.9008 122.613 97.2982 121.45 97.2814H78.102L72.3418 129.724H98.2137L108.611 194.561H162.796L152.496 129.724H154.546C160.012 129.517 165.25 127.487 169.42 123.959C173.589 120.431 176.448 115.609 177.538 110.268L191.304 32.3956Z" fill="white"/>
<path fill-rule="evenodd" clip-rule="evenodd" d="M596.172 194.56H1485.58L1519.99 0H630.586L596.172 194.56ZM986.437 162.118H954.804L947.97 121.941H934.009L926.931 162.118H896.227L916.729 46.306L912.824 32.4436H982.58C985.763 32.1601 988.969 32.5944 991.961 33.7143C994.952 34.8342 997.652 36.611 999.861 38.9128C1001.73 41.5779 1002.98 44.6192 1003.54 47.8216C1004.1 51.0239 1003.94 54.3091 1003.08 57.4446L996.102 96.8916C995.648 101.862 993.839 106.615 990.871 110.635C987.902 114.656 983.888 117.792 979.261 119.704L986.437 162.118ZM938.793 95.0433H961.102C961.77 95.1245 962.448 95.0669 963.093 94.8743C963.738 94.6818 964.336 94.3583 964.849 93.9244C965.363 93.4904 965.781 92.9552 966.077 92.3526C966.373 91.7499 966.54 91.0928 966.569 90.4225L971.45 63.9137C971.987 60.8494 970.718 59.0497 967.643 59.0497H945.286L938.793 95.0433ZM806.076 162.117L805.588 135.267H775.127L765.364 162.117H733.781L782.596 46.3048L778.545 32.4424H829.312L837.952 162.117H806.076ZM785.086 108.613H805.149L804.368 59.4862H803.245L785.086 108.613ZM705.167 59.2921L701.066 82.688H743.828L724.302 109.586H696.429L687.056 162.36H656.352L676.854 46.5484L672.802 32.686H761.987L742.461 59.5353L705.167 59.2921ZM879.056 162.117L901.999 32.4424H864.851L868.903 46.3048L848.352 162.117H879.056ZM1047.17 59.2917H1084.37L1103.99 32.6856H1014.71L1018.76 46.548L998.258 162.36H1028.96L1038.29 109.585H1066.31L1085.83 82.6875H1043.07L1047.17 59.2917ZM1124.88 162.117L1147.83 32.4424H1110.63L1114.68 46.3048L1094.18 162.117H1124.88ZM1166.66 162.117C1163.42 162.454 1160.15 162.046 1157.09 160.924C1154.04 159.803 1151.28 157.998 1149.04 155.648C1147.17 152.983 1145.91 149.942 1145.36 146.739C1144.8 143.537 1144.96 140.252 1145.82 137.116L1159.92 57.4439C1160.87 50.3085 1164.33 43.7405 1169.69 38.912C1175.2 34.4735 1182.13 32.1752 1189.21 32.4429H1254.53L1235 59.2922H1195.02C1194.33 59.2092 1193.63 59.2734 1192.97 59.4804C1192.31 59.6874 1191.7 60.0326 1191.18 60.4928C1190.67 60.953 1190.25 61.5177 1189.97 62.1494C1189.69 62.7811 1189.55 63.4652 1189.55 64.1562L1177.74 130.89C1177.2 133.955 1178.47 135.511 1181.55 135.511H1203.86L1213.13 82.688H1243.79L1229.73 162.36L1166.66 162.117ZM1358.7 32.4424H1327.99L1319.3 81.7147H1292.31L1301.05 32.4424H1263.85L1267.9 46.3048L1247.4 162.117H1278.1L1287.57 108.613H1314.52L1305.05 162.117H1335.75L1358.7 32.4424ZM1367.72 59.2917L1372.6 32.4424H1460.96L1456.07 59.2917H1427.22L1409.02 162.117H1378.36L1396.57 59.2917H1367.72Z" fill="white"/>
<path fill-rule="evenodd" clip-rule="evenodd" d="M596.172 194.56H1485.58L1519.99 0H630.586L596.172 194.56ZM986.437 162.118H954.804L947.97 121.941H934.009L926.931 162.118H896.227L916.729 46.306L912.824 32.4436H982.58C985.763 32.1601 988.969 32.5944 991.961 33.7143C994.952 34.8342 997.652 36.611 999.861 38.9128C1001.73 41.5779 1002.98 44.6192 1003.54 47.8216C1004.1 51.0239 1003.94 54.3091 1003.08 57.4446L996.102 96.8916C995.648 101.862 993.839 106.615 990.871 110.635C987.902 114.656 983.888 117.792 979.261 119.704L986.437 162.118ZM938.793 95.0433H961.102C961.77 95.1245 962.448 95.0669 963.093 94.8743C963.738 94.6818 964.336 94.3583 964.849 93.9244C965.363 93.4904 965.781 92.9552 966.077 92.3526C966.373 91.7499 966.54 91.0928 966.569 90.4225L971.45 63.9137C971.987 60.8494 970.718 59.0497 967.643 59.0497H945.286L938.793 95.0433ZM806.076 162.117L805.588 135.267H775.127L765.364 162.117H733.781L782.596 46.3048L778.545 32.4424H829.312L837.952 162.117H806.076ZM785.086 108.613H805.149L804.368 59.4862H803.245L785.086 108.613ZM705.167 59.2921L701.066 82.688H743.828L724.302 109.586H696.429L687.056 162.36H656.352L676.854 46.5484L672.802 32.686H761.987L742.461 59.5353L705.167 59.2921ZM879.056 162.117L901.999 32.4424H864.851L868.903 46.3048L848.352 162.117H879.056ZM1047.17 59.2917H1084.37L1103.99 32.6856H1014.71L1018.76 46.548L998.258 162.36H1028.96L1038.29 109.585H1066.31L1085.83 82.6875H1043.07L1047.17 59.2917ZM1124.88 162.117L1147.83 32.4424H1110.63L1114.68 46.3048L1094.18 162.117H1124.88ZM1166.66 162.117C1163.42 162.454 1160.15 162.046 1157.09 160.924C1154.04 159.803 1151.28 157.998 1149.04 155.648C1147.17 152.983 1145.91 149.942 1145.36 146.739C1144.8 143.537 1144.96 140.252 1145.82 137.116L1159.92 57.4439C1160.87 50.3085 1164.33 43.7405 1169.69 38.912C1175.2 34.4735 1182.13 32.1752 1189.21 32.4429H1254.53L1235 59.2922H1195.02C1194.33 59.2092 1193.63 59.2734 1192.97 59.4804C1192.31 59.6874 1191.7 60.0326 1191.18 60.4928C1190.67 60.953 1190.25 61.5177 1189.97 62.1494C1189.69 62.7811 1189.55 63.4652 1189.55 64.1562L1177.74 130.89C1177.2 133.955 1178.47 135.511 1181.55 135.511H1203.86L1213.13 82.688H1243.79L1229.73 162.36L1166.66 162.117ZM1358.7 32.4424H1327.99L1319.3 81.7147H1292.31L1301.05 32.4424H1263.85L1267.9 46.3048L1247.4 162.117H1278.1L1287.57 108.613H1314.52L1305.05 162.117H1335.75L1358.7 32.4424ZM1367.72 59.2917L1372.6 32.4424H1460.96L1456.07 59.2917H1427.22L1409.02 162.117H1378.36L1396.57 59.2917H1367.72Z" fill="white"/>
</g>
<defs>
<clipPath id="clip0_1640_51905">
<rect width="1520" height="194.56" fill="white"/>
</clipPath>
</defs>
</svg>
