<svg width="223" height="33" viewBox="0 0 223 33" fill="none" xmlns="http://www.w3.org/2000/svg">
<g clip-path="url(#clip0_2285_33482)">
<path d="M50.7984 21.4453L50.0051 26.1093C49.973 26.2971 49.8755 26.4672 49.73 26.589C49.5846 26.7107 49.4009 26.7761 49.2119 26.7733H42.1601L41.2241 32.1093H52.4562C53.9362 32.0572 55.3555 31.5028 56.4842 30.5358C57.6128 29.5688 58.3848 28.2459 58.6751 26.7813L59.6032 21.4453H50.7984Z" fill="white"/>
<path d="M46.8237 0.109993L45.8877 5.44599H52.9315C53.0143 5.44269 53.0966 5.45864 53.1722 5.49259C53.2479 5.52655 53.3147 5.5776 53.3676 5.6418C53.4206 5.706 53.4581 5.78162 53.4774 5.86281C53.4967 5.944 53.4972 6.02858 53.4789 6.10999L52.6856 10.774H61.4904L62.4264 5.43799C62.5759 4.78557 62.574 4.10717 62.421 3.45559C62.2681 2.80401 61.968 2.19682 61.5444 1.68128C61.1207 1.16574 60.5848 0.755747 59.9783 0.483216C59.3719 0.210685 58.7112 0.0829638 58.0478 0.109993H46.8237Z" fill="white"/>
<path d="M40.1535 32.1094H36.5999C35.936 32.138 35.2746 32.0114 34.6673 31.7394C34.06 31.4674 33.5234 31.0574 33.0994 30.5414C32.6754 30.0254 32.3755 29.4175 32.2231 28.7652C32.0708 28.113 32.0702 27.434 32.2213 26.7814L35.9494 5.43737C36.241 3.96758 37.0176 2.64074 38.1528 1.67317C39.2879 0.705603 40.7145 0.154383 42.2001 0.109375L45.7061 0.109375L40.1535 32.1094Z" fill="white"/>
<path d="M81.6226 21.4453L80.8293 26.1093C80.7972 26.2971 80.6997 26.4672 80.5543 26.589C80.4088 26.7107 80.2251 26.7761 80.0361 26.7733H72.9843L72.0483 32.1093H83.2804C84.7604 32.0572 86.1797 31.5028 87.3084 30.5358C88.437 29.5688 89.209 28.2459 89.4993 26.7813L90.4274 21.4453H81.6226Z" fill="white"/>
<path d="M77.6479 0.109087L76.7119 5.44509H83.7796C83.8623 5.44179 83.9446 5.45773 84.0202 5.49169C84.0959 5.52564 84.1627 5.5767 84.2157 5.6409C84.2686 5.7051 84.3061 5.78072 84.3254 5.86191C84.3447 5.9431 84.3452 6.02767 84.3269 6.10909L83.5337 10.7731H92.3385L93.2745 5.43709C93.4245 4.78262 93.4224 4.102 93.2681 3.44852C93.1138 2.79505 92.8117 2.18646 92.3853 1.67041C91.9589 1.15436 91.4198 0.744871 90.8103 0.473999C90.2008 0.203127 89.5374 0.0782296 88.8721 0.109087H77.6479Z" fill="white"/>
<path d="M70.9527 32.1094H67.4228C66.7616 32.133 66.1039 32.0026 65.5006 31.7284C64.8974 31.4542 64.365 31.0435 63.9446 30.5282C63.5242 30.0129 63.2271 29.4069 63.0765 28.7571C62.9259 28.1073 62.9257 27.4312 63.076 26.7814L66.8041 5.43738C67.0944 3.97277 67.8664 2.64986 68.9951 1.68288C70.1237 0.715907 71.543 0.161476 73.023 0.109375L76.5449 0.109375L70.9527 32.1094Z" fill="white"/>
<path d="M0.490723 32.1094H9.29553L14.8957 0.109375H4.98831L5.50391 3.42138L0.490723 32.1094Z" fill="white"/>
<path d="M31.5775 5.43708C31.7263 4.7867 31.7248 4.11051 31.5731 3.46081C31.4214 2.8111 31.1235 2.2053 30.7025 1.69026C30.2816 1.17521 29.7488 0.764727 29.1454 0.49055C28.542 0.216373 27.8841 0.0858521 27.2227 0.109082H15.9906L15.0625 5.44508H22.1064C22.1891 5.44178 22.2714 5.45773 22.3471 5.49168C22.4227 5.52564 22.4896 5.57669 22.5425 5.64089C22.5954 5.70509 22.6329 5.78071 22.6522 5.8619C22.6715 5.94309 22.672 6.02767 22.6537 6.10908L21.0197 15.4451C20.9875 15.6329 20.89 15.803 20.7446 15.9248C20.5991 16.0465 20.4154 16.1119 20.2264 16.1091H13.1826L12.2466 21.4451H16.4507L18.1402 32.1091H26.945L25.2713 21.4451H25.6045C26.4927 21.4111 27.3439 21.0771 28.0214 20.4968C28.6989 19.9165 29.1635 19.1236 29.3406 18.2451L31.5775 5.43708Z" fill="white"/>
<path d="M216.9 32.1094H97.4722L103.064 0.109375H222.492L216.9 32.1094Z" fill="url(#paint0_linear_2285_33482)"/>
<path d="M123.664 9.6449L122.871 14.0049L120.777 15.9009L122.204 17.7889L121.411 22.5889C121.262 23.7329 120.731 24.7913 119.904 25.5889C119.079 26.3108 118.013 26.6884 116.922 26.6449H107.403L110.687 7.8609L110.1 5.6049H120.602C121.089 5.55784 121.58 5.62916 122.034 5.81289C122.488 5.99662 122.892 6.28741 123.212 6.6609C123.488 7.09979 123.67 7.59154 123.748 8.10513C123.826 8.61872 123.797 9.143 123.664 9.6449ZM118.46 12.9569L118.857 10.7009C118.944 10.1969 118.754 9.9489 118.286 9.9489H114.931L114.272 13.7089H117.635C117.843 13.7177 118.046 13.6438 118.2 13.5031C118.355 13.3624 118.448 13.1663 118.46 12.9569ZM116.969 21.5169L117.437 18.8129C117.524 18.3089 117.334 18.0609 116.866 18.0609H113.511L112.773 22.2689H116.136C116.345 22.2798 116.55 22.2069 116.706 22.066C116.862 21.9251 116.957 21.7277 116.969 21.5169Z" fill="white"/>
<path d="M130.055 26.7741C129.561 26.8254 129.062 26.7555 128.601 26.5702C128.14 26.3849 127.73 26.0898 127.406 25.7101C127.126 25.2685 126.941 24.7726 126.863 24.2545C126.785 23.7363 126.816 23.2074 126.954 22.7021L129.262 9.48606C129.426 8.34707 129.969 7.29795 130.801 6.51006C131.616 5.79152 132.67 5.41129 133.752 5.44606H139.495C139.989 5.39469 140.488 5.46464 140.949 5.64991C141.41 5.83519 141.82 6.1303 142.144 6.51006C142.422 6.9524 142.606 7.44825 142.684 7.9661C142.762 8.48395 142.732 9.01246 142.596 9.51806L140.28 22.7341C140.127 23.8681 139.599 24.9167 138.781 25.7101C137.952 26.4296 136.883 26.8043 135.79 26.7581L130.055 26.7741ZM131.785 21.7101C131.697 22.2061 131.888 22.4621 132.356 22.4621H135.013C135.215 22.4624 135.41 22.3848 135.558 22.245C135.705 22.1052 135.794 21.9138 135.806 21.7101L137.75 10.5901C137.837 10.0941 137.646 9.83806 137.178 9.83806H134.545C134.336 9.82713 134.131 9.90006 133.975 10.0409C133.819 10.1818 133.724 10.3792 133.712 10.5901L131.785 21.7101Z" fill="white"/>
<path d="M162.825 5.58887L156.701 16.1089L159.137 26.6289H154.234L152.934 19.6529L149.189 26.6289H144.303L150.459 16.1089L147.984 5.58887H152.886L154.195 12.5329L157.923 5.58887H162.825Z" fill="white"/>
<path d="M173.302 5.58887L169.621 26.6289H165.005L168.289 7.84487L167.702 5.58887H173.302Z" fill="white"/>
<path d="M189.08 5.58887H193.705L190.024 26.6289H185.685L182.513 15.7489L180.609 26.6289H175.992L179.276 7.84487L178.689 5.58887H184.012L187.145 16.4689L189.08 5.58887Z" fill="white"/>
<path d="M199.502 26.6293C199.014 26.6757 198.522 26.6041 198.066 26.4205C197.611 26.2368 197.206 25.9464 196.884 25.5733C196.605 25.133 196.42 24.6388 196.341 24.1222C196.261 23.6057 196.29 23.0782 196.424 22.5733L198.685 9.64533C198.836 8.50194 199.367 7.44413 200.192 6.64533C201.017 5.92342 202.083 5.54577 203.175 5.58933H212.979L209.98 9.94933H203.952C203.75 9.94896 203.555 10.0266 203.407 10.1664C203.26 10.3062 203.171 10.4976 203.159 10.7013L201.263 21.5173C201.176 22.0213 201.366 22.2693 201.834 22.2693H205.142L206.657 13.7093H211.281L209.021 26.6293H199.502Z" fill="white"/>
</g>
<defs>
<linearGradient id="paint0_linear_2285_33482" x1="97.4722" y1="16.1094" x2="222.492" y2="16.1094" gradientUnits="userSpaceOnUse">
<stop stop-color="#C96B4F"/>
<stop offset="0.5" stop-color="#EEAB83"/>
<stop offset="1" stop-color="#A7583F"/>
</linearGradient>
<clipPath id="clip0_2285_33482">
<rect width="222" height="32" fill="white" transform="translate(0.492188 0.109375)"/>
</clipPath>
</defs>
</svg>
