<svg width="250" height="32" viewBox="0 0 250 32" fill="none" xmlns="http://www.w3.org/2000/svg">
<g clip-path="url(#clip0_2285_33851)">
<path d="M50.9192 21.3359L50.1164 25.9999C50.0839 26.1878 49.9851 26.3579 49.8379 26.4796C49.6907 26.6013 49.5048 26.6667 49.3135 26.6639H42.1759L41.2285 31.9999H52.5973C54.0953 31.9478 55.5318 31.3934 56.6742 30.4264C57.8166 29.4594 58.598 28.1365 58.8918 26.6719L59.8312 21.3359H50.9192Z" fill="white"/>
<path d="M46.8966 -0.000358935L45.9492 5.33564H53.0788C53.1625 5.33234 53.2459 5.34829 53.3224 5.38224C53.3989 5.4162 53.4666 5.46725 53.5202 5.53145C53.5737 5.59565 53.6118 5.67127 53.6313 5.75246C53.6508 5.83365 53.6513 5.91823 53.6328 5.99964L52.8299 10.6636H61.7418L62.6892 5.32764C62.8405 4.67522 62.8386 3.99682 62.6837 3.34524C62.5289 2.69366 62.2252 2.08647 61.7964 1.57093C61.3676 1.05539 60.8251 0.645396 60.2113 0.372865C59.5975 0.100333 58.9288 -0.0273878 58.2573 -0.000358935H46.8966Z" fill="white"/>
<path d="M40.143 32H36.5461C35.8742 32.0287 35.2047 31.902 34.59 31.63C33.9754 31.358 33.4322 30.948 33.003 30.432C32.5739 29.9161 32.2703 29.3082 32.1161 28.6559C31.9619 28.0036 31.9613 27.3246 32.1143 26.672L35.8878 5.328C36.1829 3.8582 36.969 2.53136 38.1179 1.56379C39.2668 0.596228 40.7108 0.0450078 42.2145 0L45.7632 0L40.143 32Z" fill="white"/>
<path d="M82.1185 21.3359L81.3156 25.9999C81.2831 26.1878 81.1843 26.3579 81.0372 26.4796C80.89 26.6013 80.704 26.6667 80.5127 26.6639H73.3751L72.4277 31.9999H83.7965C85.2945 31.9478 86.7311 31.3934 87.8735 30.4264C89.0159 29.4594 89.7972 28.1365 90.091 26.6719L91.0304 21.3359H82.1185Z" fill="white"/>
<path d="M78.0958 -0.000288386L77.1484 5.33571H84.3021C84.3858 5.33241 84.4692 5.34836 84.5457 5.38231C84.6222 5.41627 84.6899 5.46732 84.7435 5.53152C84.797 5.59572 84.8351 5.67134 84.8546 5.75253C84.8741 5.83372 84.8746 5.9183 84.8561 5.99971L84.0532 10.6637H92.9651L93.9125 5.32771C94.0644 4.67324 94.0622 3.99262 93.9061 3.33915C93.7499 2.68567 93.4441 2.07708 93.0125 1.56104C92.5809 1.04499 92.0353 0.635496 91.4184 0.364624C90.8015 0.0937524 90.13 -0.0311454 89.4565 -0.000288386H78.0958Z" fill="white"/>
<path d="M71.319 32H67.7461C67.0769 32.0236 66.4111 31.8932 65.8006 31.619C65.19 31.3448 64.6511 30.9341 64.2256 30.4188C63.8 29.9035 63.4994 29.2975 63.3469 28.6477C63.1944 27.9979 63.1943 27.3219 63.3464 26.672L67.1199 5.328C67.4137 3.86339 68.1951 2.54049 69.3375 1.57351C70.4799 0.606532 71.9164 0.0521012 73.4145 0L76.9792 0L71.319 32Z" fill="white"/>
<path d="M0 32H8.91194L14.5803 0H4.55232L5.07419 3.312L0 32Z" fill="white"/>
<path d="M31.4646 5.32771C31.6152 4.67732 31.6137 4.00113 31.4601 3.35143C31.3066 2.70173 31.0051 2.09593 30.579 1.58088C30.1529 1.06584 29.6136 0.655352 29.0029 0.381175C28.3921 0.106998 27.7262 -0.0235229 27.0568 -0.000293008H15.688L14.7487 5.33571H21.8782C21.9619 5.33241 22.0453 5.34835 22.1218 5.38231C22.1984 5.41626 22.266 5.46732 22.3196 5.53152C22.3732 5.59572 22.4112 5.67134 22.4307 5.75253C22.4502 5.83372 22.4507 5.91829 22.4322 5.99971L20.7783 15.3357C20.7458 15.5235 20.647 15.6936 20.4998 15.8154C20.3526 15.9371 20.1667 16.0025 19.9754 15.9997H12.8458L11.8984 21.3357H16.1537L17.8638 31.9997H26.7758L25.0817 21.3357H25.4189C26.3179 21.3017 27.1794 20.9678 27.8652 20.3875C28.5509 19.8072 29.0212 19.0142 29.2004 18.1357L31.4646 5.32771Z" fill="white"/>
<path d="M244.339 32H98.0547L103.715 0H249.999L244.339 32Z" fill="#225BBB"/>
<path d="M115.984 9.75198L115.309 13.6H122.343L119.131 18.024H114.547L113.005 26.704H107.955L111.327 7.65598L110.661 5.37598H125.329L122.118 9.79198L115.984 9.75198Z" fill="white"/>
<path d="M132.58 26.6639L132.5 22.2479H127.49L125.884 26.6639H120.689L128.718 7.61594L128.052 5.33594H136.402L137.823 26.6639H132.58ZM129.128 17.8639H132.428L132.299 9.78394H132.114L129.128 17.8639Z" fill="white"/>
<path d="M148.355 5.33594L144.581 26.6639H139.531L142.911 7.61594L142.245 5.33594H148.355Z" fill="white"/>
<path d="M162.245 26.6641H157.043L155.919 20.0561H153.622L152.458 26.6641H147.408L150.78 7.61612L150.138 5.33612H161.611C162.135 5.28948 162.662 5.36091 163.154 5.54511C163.646 5.7293 164.09 6.02154 164.453 6.40012C164.76 6.83846 164.967 7.33868 165.059 7.86539C165.15 8.39209 165.124 8.93242 164.983 9.44812L163.835 15.9361C163.76 16.7537 163.463 17.5353 162.975 18.1966C162.486 18.8579 161.826 19.3736 161.065 19.6881L162.245 26.6641ZM154.409 15.6321H158.078C158.188 15.6455 158.3 15.636 158.406 15.6043C158.512 15.5727 158.61 15.5195 158.695 15.4481C158.779 15.3767 158.848 15.2887 158.897 15.1896C158.945 15.0905 158.973 14.9824 158.978 14.8721L159.781 10.5121C159.869 10.0081 159.66 9.71212 159.154 9.71212H155.477L154.409 15.6321Z" fill="white"/>
<path d="M178.35 9.75194H172.232L171.558 13.5999H178.591L175.38 18.0239H170.771L169.238 26.7039H164.188L167.56 7.65594L166.893 5.37594H181.578L178.35 9.75194ZM188.788 5.33594L185.014 26.6639H179.964L183.336 7.61594L182.67 5.33594H188.788Z" fill="white"/>
<path d="M191.887 26.6645C191.355 26.7198 190.817 26.6527 190.314 26.4682C189.812 26.2838 189.358 25.9869 188.989 25.6005C188.682 25.1621 188.475 24.6619 188.384 24.1352C188.292 23.6085 188.318 23.0682 188.459 22.5525L190.779 9.44846C190.935 8.27489 191.504 7.19462 192.385 6.40046C193.291 5.67044 194.432 5.29243 195.597 5.33646H206.339L203.128 9.75246H196.552C196.439 9.73882 196.324 9.74938 196.215 9.78343C196.106 9.81748 196.006 9.87424 195.921 9.94993C195.836 10.0256 195.768 10.1185 195.722 10.2224C195.676 10.3263 195.652 10.4388 195.653 10.5525L193.71 21.5285C193.622 22.0325 193.83 22.2885 194.336 22.2885H198.005L199.531 13.6005H204.573L202.261 26.7045L191.887 26.6645Z" fill="white"/>
<path d="M218.423 5.33594H223.474L219.7 26.6639H214.65L216.208 17.8639H211.776L210.218 26.6639H205.168L208.54 7.61594L207.874 5.33594H213.992L212.554 13.4399H216.994L218.423 5.33594Z" fill="white"/>
<path d="M224.951 9.75194L225.754 5.33594H240.286L239.483 9.75194H234.738L231.744 26.6639H226.701L229.696 9.75194H224.951Z" fill="white"/>
</g>
<defs>
<clipPath id="clip0_2285_33851">
<rect width="250" height="32" fill="white"/>
</clipPath>
</defs>
</svg>
