<svg width="186" height="32" viewBox="0 0 186 32" fill="none" xmlns="http://www.w3.org/2000/svg">
<g clip-path="url(#clip0_760_11030)">
<path d="M50.9373 21.3359L50.1372 25.9999C50.1049 26.1878 50.0065 26.3579 49.8598 26.4796C49.7132 26.6013 49.5278 26.6667 49.3372 26.6639H42.2253L41.2812 31.9999H52.6093C54.1019 31.9478 55.5333 31.3934 56.6716 30.4264C57.8099 29.4594 58.5885 28.1365 58.8813 26.6719L59.8172 21.3359H50.9373Z" fill="white"/>
<path d="M46.9284 -0.000358935L45.9844 5.33564H53.0884C53.1718 5.33234 53.2549 5.34829 53.3311 5.38224C53.4074 5.4162 53.4748 5.46725 53.5282 5.53145C53.5816 5.59565 53.6194 5.67127 53.6389 5.75246C53.6584 5.83365 53.6589 5.91823 53.6404 5.99964L52.8404 10.6636H61.7204L62.6644 5.32764C62.8151 4.67522 62.8132 3.99682 62.6589 3.34524C62.5046 2.69366 62.2021 2.08647 61.7748 1.57093C61.3475 1.05539 60.807 0.645396 60.1953 0.372865C59.5837 0.100333 58.9174 -0.0273878 58.2484 -0.000358935H46.9284Z" fill="white"/>
<path d="M40.1998 32H36.6158C35.9462 32.0287 35.2792 31.902 34.6667 31.63C34.0542 31.358 33.513 30.948 33.0854 30.432C32.6577 29.9161 32.3553 29.3082 32.2016 28.6559C32.048 28.0036 32.0474 27.3246 32.1998 26.672L35.9598 5.328C36.2538 3.8582 37.0371 2.53136 38.1819 1.56379C39.3267 0.596228 40.7655 0.0450078 42.2638 0L45.7998 0L40.1998 32Z" fill="white"/>
<path d="M82.0232 21.3359L81.2232 25.9999C81.1908 26.1878 81.0924 26.3579 80.9458 26.4796C80.7991 26.6013 80.6138 26.6667 80.4232 26.6639H73.3112L72.3672 31.9999H83.6952C85.1879 31.9478 86.6192 31.3934 87.7576 30.4264C88.8959 29.4594 89.6744 28.1365 89.9672 26.6719L90.9032 21.3359H82.0232Z" fill="white"/>
<path d="M78.0143 -0.000288386L77.0703 5.33571H84.1983C84.2817 5.33241 84.3648 5.34836 84.4411 5.38231C84.5173 5.41627 84.5848 5.46732 84.6381 5.53152C84.6915 5.59572 84.7294 5.67134 84.7488 5.75253C84.7683 5.83372 84.7688 5.9183 84.7503 5.99971L83.9503 10.6637H92.8303L93.7743 5.32771C93.9257 4.67324 93.9235 3.99262 93.7679 3.33915C93.6123 2.68567 93.3076 2.07708 92.8775 1.56104C92.4475 1.04499 91.9038 0.635496 91.2891 0.364624C90.6744 0.0937524 90.0053 -0.0311454 89.3343 -0.000288386H78.0143Z" fill="white"/>
<path d="M71.2646 32H67.7046C67.0377 32.0236 66.3743 31.8932 65.766 31.619C65.1576 31.3448 64.6206 30.9341 64.1966 30.4188C63.7726 29.9035 63.473 29.2975 63.3211 28.6477C63.1692 27.9979 63.169 27.3219 63.3206 26.672L67.0806 5.328C67.3733 3.86339 68.1519 2.54049 69.2902 1.57351C70.4285 0.606532 71.8599 0.0521012 73.3526 0L76.9046 0L71.2646 32Z" fill="white"/>
<path d="M0.199219 32H9.07922L14.7272 0H4.73522L5.25522 3.312L0.199219 32Z" fill="white"/>
<path d="M31.5507 5.32868C31.7008 4.6783 31.6993 4.00211 31.5463 3.35241C31.3932 2.7027 31.0928 2.0969 30.6683 1.58186C30.2437 1.06681 29.7064 0.656329 29.0978 0.382152C28.4892 0.107975 27.8258 -0.0225463 27.1587 0.000683555H15.8307L14.8947 5.33668H21.9987C22.0821 5.33338 22.1652 5.34933 22.2414 5.38329C22.3177 5.41724 22.3851 5.46829 22.4385 5.53249C22.4919 5.59669 22.5298 5.67232 22.5492 5.7535C22.5687 5.83469 22.5692 5.91927 22.5507 6.00068L20.9027 15.3367C20.8703 15.5245 20.7719 15.6946 20.6253 15.8164C20.4786 15.9381 20.2933 16.0035 20.1027 16.0007H12.9987L12.0547 21.3367H16.2947L17.9987 32.0007H26.8787L25.1907 21.3367H25.5267C26.4225 21.3027 27.2809 20.9687 27.9642 20.3884C28.6475 19.8081 29.116 19.0152 29.2947 18.1367L31.5507 5.32868Z" fill="white"/>
<path d="M180.322 32H97.9062L103.546 0H185.962L180.322 32Z" fill="#E04141"/>
<path d="M119.143 13.8079L116.335 5.33594H110.463L111.063 7.61594L107.703 26.6639H112.431L114.639 14.1679L117.583 22.6399L123.519 14.1679L121.311 26.6639H126.039L129.799 5.33594H124.935L119.143 13.8079Z" fill="white"/>
<path d="M144.01 13.8079L141.202 5.33594H135.33L135.93 7.61594L132.57 26.6639H137.298L139.506 14.1679L142.45 22.6399L148.386 14.1679L146.178 26.6639H150.906L154.666 5.33594H149.802L144.01 13.8079Z" fill="white"/>
<path d="M171.272 5.33594H163.448L164.048 7.61594L156.336 26.6639H161.208L162.808 22.2479H167.512V26.6639H172.384L171.272 5.33594ZM164.368 17.8319L167.256 9.75194H167.4L167.44 17.8319H164.368Z" fill="white"/>
</g>
<defs>
<clipPath id="clip0_760_11030">
<rect width="186" height="32" fill="white"/>
</clipPath>
</defs>
</svg>
