<svg width="93" height="32" viewBox="0 0 93 32" fill="none" xmlns="http://www.w3.org/2000/svg">
<g clip-path="url(#clip0_1131_12822)">
<path d="M50.6037 21.3477L49.7812 26.0085C49.7029 26.361 49.3504 26.6743 48.9979 26.6743H41.9087L40.9688 32.001H52.2879C55.2254 32.001 58.0454 29.6118 58.5546 26.6743L59.4946 21.3477H50.6037Z" fill="white"/>
<path d="M46.6119 0.0390625L45.6719 5.36572H52.761C53.1135 5.36572 53.3877 5.67906 53.3094 6.03156L52.4869 10.6924H61.3385L62.2785 5.36572C62.8269 2.42823 60.8685 0.0390625 57.931 0.0390625H46.6119Z" fill="white"/>
<path d="M39.8751 31.96H36.3109C33.3734 31.96 31.4151 29.5708 31.9243 26.6333L35.6843 5.32666C36.1934 2.38916 39.0134 0 41.9509 0L45.5151 0L39.8751 31.96Z" fill="white"/>
<path d="M81.6662 21.3477L80.8437 26.0085C80.7654 26.361 80.4129 26.6743 80.0604 26.6743H72.9713L72.0312 32.001H83.3504C86.2879 32.001 89.1079 29.6118 89.6171 26.6743L90.5571 21.3477H81.6662Z" fill="white"/>
<path d="M77.6275 0.0390625L76.6875 5.36572H83.7767C84.1292 5.36572 84.4033 5.67906 84.325 6.03156L83.5025 10.6924H92.3542L93.2941 5.36572C93.8425 2.42823 91.8842 0.0390625 88.9467 0.0390625H77.6275Z" fill="white"/>
<path d="M70.8906 31.96H67.3656C64.4281 31.96 62.4698 29.5708 62.979 26.6333L66.7389 5.32666C67.2481 2.38916 70.0681 0 73.0056 0L76.5698 0L70.8906 31.96Z" fill="white"/>
<path d="M0 31.9599H8.85166L14.4917 0.0390625H4.50416L5.0525 3.32906L0 31.9599Z" fill="white"/>
<path d="M31.2939 5.36572C31.8031 2.42823 29.8448 0.0390625 26.9073 0.0390625H15.5881L14.6481 5.36572H21.7373C22.0898 5.36572 22.3639 5.67906 22.2856 6.03156L20.6406 15.3532C20.5623 15.7057 20.2098 16.019 19.8573 16.019H12.7681L11.8281 21.3457H16.0581L17.7423 31.999H26.6331L24.9489 21.3457H25.2623C27.0248 21.3457 28.7089 19.8965 29.0223 18.134L31.2939 5.36572Z" fill="white"/>
</g>
<defs>
<clipPath id="clip0_1131_12822">
<rect width="93" height="32" fill="white"/>
</clipPath>
</defs>
</svg>
