<svg width="1520" height="262" viewBox="0 0 1520 262" fill="none" xmlns="http://www.w3.org/2000/svg">
<g clip-path="url(#clip0_760_10915)">
<path d="M416.253 174.688L409.715 212.874C409.451 214.412 408.647 215.805 407.448 216.801C406.25 217.798 404.735 218.333 403.178 218.311H345.058L337.344 261.999H429.917C442.115 261.572 453.812 257.033 463.114 249.116C472.417 241.199 478.779 230.367 481.172 218.376L488.821 174.688H416.253Z" fill="white"/>
<path d="M383.5 -0.00318291L375.785 43.6853H433.839C434.521 43.6583 435.2 43.7889 435.823 44.0669C436.446 44.3449 436.997 44.7629 437.434 45.2885C437.87 45.8142 438.179 46.4333 438.338 47.098C438.497 47.7628 438.501 48.4552 438.35 49.1218L431.813 87.3083H504.38L512.095 43.6198C513.326 38.2781 513.311 32.7237 512.05 27.3889C510.789 22.0541 508.317 17.0827 504.825 12.8617C501.333 8.64073 496.916 5.28394 491.918 3.05259C486.919 0.821235 481.475 -0.224481 476.007 -0.00318291H383.5Z" fill="white"/>
<path d="M328.518 262H299.229C293.758 262.235 288.306 261.198 283.301 258.971C278.296 256.744 273.873 253.387 270.378 249.162C266.884 244.938 264.412 239.961 263.156 234.62C261.901 229.279 261.896 223.72 263.141 218.377L293.868 43.623C296.271 31.589 302.672 20.7255 312.027 12.8036C321.383 4.88162 333.141 0.368501 345.385 0L374.281 0L328.518 262Z" fill="white"/>
<path d="M670.304 174.688L663.766 212.874C663.502 214.412 662.698 215.805 661.499 216.801C660.3 217.798 658.786 218.333 657.229 218.311H599.109L591.395 261.999H683.967C696.166 261.572 707.863 257.033 717.165 249.116C726.468 241.199 732.83 230.367 735.223 218.376L742.872 174.688H670.304Z" fill="white"/>
<path d="M637.55 -0.00242219L629.836 43.6861H688.086C688.768 43.6591 689.447 43.7896 690.07 44.0676C690.693 44.3456 691.244 44.7636 691.681 45.2893C692.117 45.8149 692.426 46.4341 692.585 47.0988C692.744 47.7635 692.748 48.456 692.597 49.1226L686.06 87.3091H758.627L766.342 43.6206C767.579 38.2621 767.561 32.6895 766.289 27.3392C765.018 21.9889 762.527 17.006 759.013 12.7809C755.499 8.55579 751.056 5.20307 746.033 2.9853C741.009 0.767537 735.542 -0.255064 730.058 -0.00242219H637.55Z" fill="white"/>
<path d="M582.374 262H553.281C547.832 262.193 542.411 261.126 537.439 258.881C532.468 256.635 528.079 253.273 524.614 249.054C521.149 244.835 518.701 239.873 517.46 234.553C516.218 229.233 516.217 223.698 517.455 218.377L548.182 43.623C550.575 31.6315 556.937 20.8002 566.239 12.8831C575.542 4.96598 587.239 0.426578 599.437 0L628.464 0L582.374 262Z" fill="white"/>
<path d="M1.63672 262H74.2045L120.36 0H38.7051L42.9546 27.117L1.63672 262Z" fill="white"/>
<path d="M257.846 43.629C259.072 38.304 259.06 32.7676 257.809 27.4482C256.559 22.1288 254.104 17.1688 250.634 12.9518C247.165 8.73491 242.774 5.37406 237.801 3.12923C232.827 0.88441 227.405 -0.184232 221.954 0.00596282H129.381L121.732 43.6945H179.786C180.468 43.6674 181.147 43.798 181.77 44.076C182.393 44.354 182.944 44.772 183.38 45.2977C183.817 45.8233 184.126 46.4424 184.285 47.1072C184.444 47.7719 184.448 48.4644 184.297 49.131L170.83 125.569C170.565 127.107 169.761 128.5 168.562 129.497C167.364 130.493 165.85 131.029 164.292 131.006H106.238L98.5234 174.694H133.173L147.098 262.006H219.666L205.871 174.694H208.617C215.938 174.416 222.953 171.682 228.537 166.931C234.121 162.18 237.95 155.687 239.409 148.494L257.846 43.629Z" fill="white"/>
<path fill-rule="evenodd" clip-rule="evenodd" d="M800.078 262H1473.59L1519.68 0H846.168L800.078 262ZM950.705 43.6875L973.652 113.052L1020.98 43.6875H1060.73L1030.01 218.311H991.369L1009.41 115.999L960.904 185.364L936.845 115.999L918.801 218.311H880.164L907.622 62.355L902.719 43.6875H950.705ZM1176.84 113.052L1153.9 43.6875H1105.91L1110.81 62.355L1083.36 218.311H1121.99L1140.04 115.999L1164.1 185.364L1212.6 115.999L1194.56 218.311H1233.2L1263.92 43.6875H1224.18L1176.84 113.052ZM1335.71 43.6875H1399.64L1408.73 218.311H1368.92V182.154H1330.48L1317.4 218.311H1277.59L1340.61 62.355L1335.71 43.6875ZM1366.82 79.8435L1343.22 145.999H1368.33L1368 79.8435H1366.82Z" fill="white"/>
</g>
<defs>
<clipPath id="clip0_760_10915">
<rect width="1520" height="262" fill="white"/>
</clipPath>
</defs>
</svg>
