<svg width="125" height="17" viewBox="0 0 125 17" fill="none" xmlns="http://www.w3.org/2000/svg">
<g clip-path="url(#clip0_1257_127137)">
<path d="M25.4593 11.168L25.0578 13.5C25.0416 13.5939 24.9922 13.6789 24.9186 13.7398C24.845 13.8007 24.752 13.8334 24.6564 13.832H21.0876L20.6139 16.5H26.2983C27.0473 16.4739 27.7656 16.1967 28.3368 15.7132C28.908 15.2297 29.2986 14.5683 29.4455 13.836L29.9152 11.168H25.4593Z" fill="white"/>
<path d="M23.4481 0.500065L22.9744 3.16806H26.5391C26.581 3.16642 26.6227 3.17439 26.661 3.19137C26.6992 3.20834 26.7331 3.23387 26.7598 3.26597C26.7866 3.29807 26.8056 3.33588 26.8154 3.37647C26.8252 3.41707 26.8254 3.45936 26.8161 3.50006L26.4147 5.83206H30.8707L31.3444 3.16406C31.42 2.83785 31.4191 2.49866 31.3416 2.17286C31.2642 1.84707 31.1124 1.54348 30.898 1.28571C30.6835 1.02794 30.4123 0.822942 30.1054 0.686676C29.7985 0.550411 29.4642 0.48655 29.1284 0.500065H23.4481Z" fill="white"/>
<path d="M20.0719 16.5H18.2735C17.9375 16.5143 17.6028 16.451 17.2955 16.315C16.9881 16.179 16.7165 15.974 16.5019 15.716C16.2874 15.458 16.1356 15.1541 16.0585 14.8279C15.9814 14.5018 15.9811 14.1623 16.0576 13.836L17.9443 3.164C18.0919 2.4291 18.4849 1.76568 19.0594 1.2819C19.6338 0.798114 20.3558 0.522504 21.1077 0.5L22.882 0.5L20.0719 16.5Z" fill="white"/>
<path d="M41.0592 11.168L40.6577 13.5C40.6415 13.5939 40.5921 13.6789 40.5185 13.7398C40.4449 13.8007 40.3519 13.8334 40.2563 13.832H36.6875L36.2138 16.5H41.8982C42.6472 16.4739 43.3655 16.1967 43.9367 15.7132C44.5079 15.2297 44.8986 14.5683 45.0455 13.836L45.5151 11.168H41.0592Z" fill="white"/>
<path d="M39.0479 0.5001L38.5742 3.1681H42.151C42.1929 3.16645 42.2346 3.17442 42.2728 3.1914C42.3111 3.20838 42.345 3.23391 42.3717 3.26601C42.3985 3.29811 42.4175 3.33592 42.4273 3.37651C42.4371 3.4171 42.4373 3.45939 42.428 3.5001L42.0266 5.8321H46.4826L46.9563 3.1641C47.0322 2.83687 47.0311 2.49656 46.953 2.16982C46.875 1.84308 46.722 1.53878 46.5063 1.28076C46.2905 1.02274 46.0177 0.817992 45.7092 0.682556C45.4007 0.54712 45.065 0.484671 44.7283 0.5001H39.0479Z" fill="white"/>
<path d="M35.6598 16.5H33.8734C33.5387 16.5118 33.2059 16.4466 32.9006 16.3095C32.5953 16.1724 32.3258 15.9671 32.1131 15.7094C31.9003 15.4518 31.75 15.1487 31.6738 14.8238C31.5975 14.499 31.5974 14.1609 31.6735 13.836L33.5603 3.164C33.7072 2.4317 34.0979 1.77024 34.6691 1.28675C35.2403 0.803266 35.9585 0.526051 36.7075 0.5H38.4899L35.6598 16.5Z" fill="white"/>
<path d="M0 16.5H4.45597L7.29013 0.5H2.27616L2.53709 2.156L0 16.5Z" fill="white"/>
<path d="M15.7324 3.1641C15.8077 2.83891 15.807 2.50081 15.7302 2.17596C15.6534 1.85111 15.5027 1.54821 15.2896 1.29069C15.0766 1.03316 14.8069 0.82792 14.5015 0.690832C14.1962 0.553743 13.8632 0.488483 13.5285 0.500098H7.84413L7.37445 3.1681H10.9392C10.9811 3.16645 11.0228 3.17442 11.061 3.1914C11.0993 3.20838 11.1331 3.2339 11.1599 3.266C11.1867 3.2981 11.2057 3.33591 11.2155 3.37651C11.2252 3.4171 11.2255 3.45939 11.2162 3.5001L10.3893 8.1681C10.373 8.26201 10.3236 8.34706 10.25 8.40793C10.1764 8.4688 10.0835 8.50148 9.98781 8.5001H6.42304L5.94934 11.1681H8.07697L8.93203 16.5001H13.388L12.541 11.1681H12.7096C13.1591 11.1511 13.5898 10.9841 13.9327 10.694C14.2756 10.4038 14.5107 10.0073 14.6003 9.5681L15.7324 3.1641Z" fill="white"/>
<path d="M122.17 16.5H49.0277L51.8579 0.5H125L122.17 16.5Z" fill="#225BBB"/>
<path d="M57.9919 5.37599L57.6547 7.29999H61.1713L59.5655 9.51199H57.2733L56.5025 13.852H53.9775L55.6635 4.32799L55.3303 3.18799H62.6646L61.0589 5.39599L57.9919 5.37599Z" fill="white"/>
<path d="M66.2896 13.832L66.2495 11.624H63.7445L62.9416 13.832H60.3443L64.3587 4.30797L64.0255 3.16797H68.2005L68.911 13.832H66.2896ZM64.5634 9.43197H66.2133L66.1491 5.39197H66.0568L64.5634 9.43197Z" fill="white"/>
<path d="M74.1779 3.16797L72.2911 13.832H69.7661L71.4561 4.30797L71.1229 3.16797H74.1779Z" fill="white"/>
<path d="M81.1227 13.8321H78.5214L77.9594 10.5281H76.8113L76.2292 13.8321H73.7042L75.3902 4.30806L75.0691 3.16806H80.8056C81.0674 3.14474 81.331 3.18046 81.5771 3.27255C81.8231 3.36465 82.0451 3.51077 82.2267 3.70006C82.3802 3.91923 82.4835 4.16934 82.5293 4.43269C82.5751 4.69605 82.5622 4.96621 82.4917 5.22406L81.9176 8.46806C81.8802 8.87683 81.7315 9.26766 81.4874 9.5983C81.2433 9.92894 80.9131 10.1868 80.5326 10.3441L81.1227 13.8321ZM77.2047 8.31606H79.0393C79.0942 8.32273 79.15 8.318 79.203 8.30217C79.2561 8.28633 79.3053 8.25973 79.3475 8.22404C79.3897 8.18835 79.4241 8.14434 79.4484 8.09479C79.4727 8.04523 79.4865 7.99119 79.4889 7.93606L79.8903 5.75606C79.9345 5.50406 79.8301 5.35606 79.5772 5.35606H77.7386L77.2047 8.31606Z" fill="white"/>
<path d="M89.1756 5.37597H86.1167L85.7794 7.29997H89.296L87.6903 9.51197H85.386L84.6193 13.852H82.0942L83.7803 4.32797L83.4471 3.18797H90.7894L89.1756 5.37597ZM94.3943 3.16797L92.5076 13.832H89.9825L91.6686 4.30797L91.3354 3.16797H94.3943Z" fill="white"/>
<path d="M95.9438 13.832C95.6775 13.8597 95.4084 13.8261 95.1572 13.7339C94.9059 13.6416 94.6793 13.4932 94.4946 13.3C94.3411 13.0808 94.2378 12.8307 94.192 12.5674C94.1462 12.304 94.1591 12.0338 94.2297 11.776L95.3898 5.22399C95.4677 4.6372 95.7522 4.09707 96.1927 3.69999C96.6458 3.33498 97.2163 3.14597 97.7985 3.16799H103.17L101.564 5.37599H98.2762C98.2196 5.36917 98.1622 5.37444 98.1077 5.39147C98.0533 5.40849 98.0032 5.43687 97.9606 5.47472C97.9181 5.51257 97.8841 5.55901 97.861 5.61096C97.8379 5.66291 97.8262 5.71916 97.8266 5.77599L96.8551 11.264C96.8109 11.516 96.9153 11.644 97.1682 11.644H99.0028L99.7655 7.29999H102.287L101.13 13.852L95.9438 13.832Z" fill="white"/>
<path d="M109.211 3.16797H111.736L109.85 13.832H107.325L108.103 9.43197H105.888L105.109 13.832H102.584L104.27 4.30797L103.937 3.16797H106.995L106.277 7.21997H108.497L109.211 3.16797Z" fill="white"/>
<path d="M112.475 5.37597L112.877 3.16797H120.143L119.741 5.37597H117.369L115.871 13.832H113.35L114.848 5.37597H112.475Z" fill="white"/>
</g>
<defs>
<clipPath id="clip0_1257_127137">
<rect width="125" height="16" fill="white" transform="translate(0 0.5)"/>
</clipPath>
</defs>
</svg>
