<svg width="90" height="17" viewBox="0 0 90 17" fill="none" xmlns="http://www.w3.org/2000/svg">
<g clip-path="url(#clip0_1257_127134)">
<path d="M24.6029 11.168L24.215 13.5C24.1993 13.5939 24.1516 13.6789 24.0805 13.7398C24.0093 13.8007 23.9195 13.8334 23.8271 13.832H20.3784L19.9206 16.5H25.4137C26.1375 16.4739 26.8316 16.1967 27.3836 15.7132C27.9356 15.2297 28.3131 14.5683 28.4551 13.836L28.909 11.168H24.6029Z" fill="white"/>
<path d="M22.6586 0.499821L22.2009 3.16782H25.6457C25.6861 3.16617 25.7264 3.17414 25.7634 3.19112C25.8004 3.2081 25.8331 3.23363 25.859 3.26573C25.8848 3.29783 25.9032 3.33564 25.9127 3.37623C25.9221 3.41682 25.9223 3.45911 25.9134 3.49982L25.5254 5.83182H29.8315L30.2892 3.16382C30.3623 2.83761 30.3614 2.49841 30.2866 2.17262C30.2118 1.84683 30.065 1.54324 29.8578 1.28546C29.6506 1.02769 29.3885 0.822698 29.092 0.686432C28.7954 0.550167 28.4723 0.486306 28.1478 0.499821H22.6586Z" fill="white"/>
<path d="M19.3974 16.5H17.6595C17.3348 16.5143 17.0114 16.451 16.7144 16.315C16.4174 16.179 16.1549 15.974 15.9476 15.716C15.7402 15.458 15.5935 15.1541 15.519 14.8279C15.4445 14.5018 15.4442 14.1623 15.5181 13.836L17.3414 3.164C17.484 2.4291 17.8638 1.76568 18.4189 1.2819C18.9741 0.798114 19.6718 0.522504 20.3983 0.5L22.113 0.5L19.3974 16.5Z" fill="white"/>
<path d="M39.6774 11.168L39.2894 13.5C39.2737 13.5939 39.226 13.6789 39.1549 13.7398C39.0838 13.8007 38.9939 13.8334 38.9015 13.832H35.4528L34.995 16.5H40.4881C41.2119 16.4739 41.906 16.1967 42.458 15.7132C43.01 15.2297 43.3875 14.5683 43.5295 13.836L43.9834 11.168H39.6774Z" fill="white"/>
<path d="M37.7331 0.500344L37.2753 3.16834H40.7318C40.7722 3.16669 40.8125 3.17467 40.8495 3.19165C40.8865 3.20862 40.9192 3.23415 40.9451 3.26625C40.971 3.29835 40.9893 3.33616 40.9988 3.37675C41.0082 3.41735 41.0084 3.45964 40.9995 3.50034L40.6115 5.83234H44.9176L45.3753 3.16434C45.4487 2.83711 45.4477 2.4968 45.3722 2.17006C45.2968 1.84332 45.149 1.53903 44.9405 1.28101C44.7319 1.02298 44.4683 0.818237 44.1702 0.6828C43.8721 0.547364 43.5477 0.484916 43.2223 0.500344H37.7331Z" fill="white"/>
<path d="M34.4601 16.5H32.7338C32.4105 16.5118 32.0888 16.4466 31.7938 16.3095C31.4988 16.1724 31.2384 15.9671 31.0328 15.7094C30.8272 15.4518 30.6819 15.1487 30.6082 14.8238C30.5346 14.499 30.5345 14.1609 30.608 13.836L32.4313 3.164C32.5732 2.4317 32.9508 1.77024 33.5027 1.28675C34.0547 0.803266 34.7488 0.526051 35.4726 0.5H37.195L34.4601 16.5Z" fill="white"/>
<path d="M0 16.5H4.30603L7.04483 0.5H2.19957L2.45172 2.156L0 16.5Z" fill="white"/>
<path d="M15.2032 3.16434C15.276 2.83915 15.2752 2.50105 15.201 2.1762C15.1268 1.85135 14.9812 1.54845 14.7753 1.29093C14.5694 1.03341 14.3088 0.828164 14.0137 0.691076C13.7186 0.553987 13.3969 0.488727 13.0734 0.500342H7.58033L7.12645 3.16834H10.5713C10.6117 3.16669 10.652 3.17466 10.689 3.19164C10.726 3.20862 10.7587 3.23415 10.7846 3.26625C10.8104 3.29835 10.8288 3.33616 10.8382 3.37675C10.8477 3.41735 10.8479 3.45963 10.839 3.50034L10.0398 8.16834C10.0241 8.26226 9.9764 8.34731 9.90528 8.40818C9.83416 8.46904 9.7443 8.50173 9.65188 8.50034H6.20706L5.7493 11.1683H7.80533L8.63163 16.5003H12.9377L12.1191 11.1683H12.2821C12.7164 11.1513 13.1327 10.9844 13.464 10.6942C13.7954 10.4041 14.0226 10.0076 14.1092 9.56834L15.2032 3.16434Z" fill="white"/>
<path d="M87.3421 16.5H47.3774L50.1123 0.5H90.077L87.3421 16.5Z" fill="#E04141"/>
<path d="M57.6777 7.40397L56.3161 3.16797H53.4687L53.7596 4.30797L52.1303 13.832H54.423L55.4937 7.58397L56.9213 11.82L59.7997 7.58397L58.729 13.832H61.0217L62.845 3.16797H60.4863L57.6777 7.40397Z" fill="white"/>
<path d="M69.7338 7.40397L68.3721 3.16797H65.5247L65.8157 4.30797L64.1864 13.832H66.479L67.5497 7.58397L68.9773 11.82L71.8558 7.58397L70.7851 13.832H73.0777L74.901 3.16797H72.5424L69.7338 7.40397Z" fill="white"/>
<path d="M82.9549 3.16797H79.1609L79.4518 4.30797L75.7122 13.832H78.0747L78.8506 11.624H81.1316V13.832H83.4941L82.9549 3.16797ZM79.607 9.41597L81.0075 5.37597H81.0773L81.0967 9.41597H79.607Z" fill="white"/>
</g>
<defs>
<clipPath id="clip0_1257_127134">
<rect width="90" height="16" fill="white" transform="translate(0 0.5)"/>
</clipPath>
</defs>
</svg>
