<svg width="47" height="17" viewBox="0 0 47 17" fill="none" xmlns="http://www.w3.org/2000/svg">
<path d="M25.2008 11.5L24.7569 13.6875C24.7146 13.8529 24.5243 14 24.334 14H20.5074L20 16.5H26.1099C27.6956 16.5 29.2178 15.3787 29.4926 14L30 11.5H25.2008Z" fill="white"/>
<path d="M22.5066 0.5L22 3H25.8208C26.0108 3 26.1585 3.14706 26.1163 3.3125L25.673 5.5H30.4438L30.9504 3C31.2459 1.62132 30.1904 0.5 28.6072 0.5H22.5066Z" fill="white"/>
<path d="M19.5248 16.5H17.9605C16.6713 16.5 15.8119 15.3039 16.0353 13.8333L17.6855 3.16667C17.909 1.69608 19.1466 0.5 20.4358 0.5H22L19.5248 16.5Z" fill="white"/>
<path d="M40.6808 11.5L40.2812 13.6875C40.2431 13.8529 40.0719 14 39.9006 14H36.4567L36 16.5H41.4989C42.926 16.5 44.296 15.3787 44.5433 14L45 11.5H40.6808Z" fill="white"/>
<path d="M38.5066 0.5L38 3H41.8208C42.0108 3 42.1585 3.14706 42.1163 3.3125L41.673 5.5H46.4438L46.9504 3C47.2459 1.62132 46.1904 0.5 44.6072 0.5H38.5066Z" fill="white"/>
<path d="M35.0922 16.5H33.2873C31.7832 16.5 30.7805 15.3039 31.0412 13.8333L32.9664 3.16667C33.2271 1.69608 34.671 0.5 36.1751 0.5H38L35.0922 16.5Z" fill="white"/>
<path d="M0 16.5H4.27568L7 0.5H2.17568L2.44054 2.14908L0 16.5Z" fill="white"/>
<path d="M14.9629 3.16667C15.1974 1.69608 14.2957 0.5 12.9431 0.5H7.73127L7.29845 3.16667H10.5626C10.7249 3.16667 10.8512 3.32353 10.8151 3.5L10.0577 8.16667C10.0216 8.34314 9.85929 8.5 9.69698 8.5H6.43282L6 11.1667H7.94768L8.72314 16.5H12.8169L12.0414 11.1667H12.1857C12.9972 11.1667 13.7727 10.4412 13.917 9.55882L14.9629 3.16667Z" fill="white"/>
</svg>
