<svg width="111" height="17" viewBox="0 0 111 17" fill="none" xmlns="http://www.w3.org/2000/svg">
<g clip-path="url(#clip0_1257_127136)">
<path d="M25.1531 11.168L24.7565 13.5C24.7405 13.5939 24.6917 13.6789 24.619 13.7398C24.5463 13.8007 24.4544 13.8334 24.3599 13.832H20.834L20.366 16.5H25.9821C26.7221 16.4739 27.4317 16.1967 27.996 15.7132C28.5604 15.2297 28.9464 14.5683 29.0915 13.836L29.5555 11.168H25.1531Z" fill="white"/>
<path d="M23.1657 0.500309L22.6977 3.16831H26.2196C26.261 3.16666 26.3021 3.17463 26.34 3.19161C26.3778 3.20859 26.4112 3.23411 26.4377 3.26621C26.4641 3.29831 26.4829 3.33612 26.4925 3.37672C26.5022 3.41731 26.5024 3.4596 26.4933 3.50031L26.0967 5.83231H30.4991L30.9671 3.16431C31.0418 2.8381 31.0409 2.4989 30.9644 2.17311C30.8879 1.84732 30.7379 1.54372 30.526 1.28595C30.3142 1.02818 30.0462 0.823186 29.743 0.686921C29.4398 0.550655 29.1095 0.486794 28.7778 0.500309H23.1657Z" fill="white"/>
<path d="M19.8307 16.5H18.0538C17.7219 16.5143 17.3912 16.451 17.0876 16.315C16.7839 16.179 16.5156 15.974 16.3036 15.716C16.0916 15.458 15.9416 15.1541 15.8655 14.8279C15.7893 14.5018 15.789 14.1623 15.8645 13.836L17.7286 3.164C17.8744 2.4291 18.2627 1.76568 18.8303 1.2819C19.3978 0.798114 20.1112 0.522504 20.8539 0.5L22.607 0.5L19.8307 16.5Z" fill="white"/>
<path d="M40.5653 11.168L40.1687 13.5C40.1526 13.5939 40.1039 13.6789 40.0312 13.7398C39.9584 13.8007 39.8666 13.8334 39.7721 13.832H36.2462L35.7782 16.5H41.3942C42.1343 16.4739 42.8439 16.1967 43.4082 15.7132C43.9725 15.2297 44.3585 14.5683 44.5037 13.836L44.9677 11.168H40.5653Z" fill="white"/>
<path d="M38.5778 0.499856L38.1098 3.16786H41.6436C41.685 3.16621 41.7262 3.17418 41.764 3.19116C41.8018 3.20813 41.8352 3.23366 41.8617 3.26576C41.8881 3.29786 41.9069 3.33567 41.9166 3.37627C41.9262 3.41686 41.9264 3.45915 41.9173 3.49986L41.5207 5.83186H45.9231L46.3911 3.16386C46.4661 2.83662 46.465 2.49631 46.3879 2.16957C46.3108 1.84284 46.1597 1.53854 45.9465 1.28052C45.7333 1.02249 45.4638 0.817748 45.159 0.682312C44.8543 0.546876 44.5226 0.484427 44.1899 0.499856H38.5778Z" fill="white"/>
<path d="M35.2304 16.5H33.4654C33.1348 16.5118 32.806 16.4466 32.5044 16.3095C32.2027 16.1724 31.9365 15.9671 31.7263 15.7094C31.5161 15.4518 31.3676 15.1487 31.2923 14.8238C31.217 14.499 31.2169 14.1609 31.292 13.836L33.1561 3.164C33.3012 2.4317 33.6872 1.77024 34.2516 1.28675C34.8159 0.803266 35.5255 0.526051 36.2655 0.5H38.0265L35.2304 16.5Z" fill="white"/>
<path d="M-0.000610352 16.5H4.40179L7.20188 0.5H2.24818L2.50598 2.156L-0.000610352 16.5Z" fill="white"/>
<path d="M15.5428 3.16385C15.6172 2.83866 15.6164 2.50057 15.5406 2.17572C15.4647 1.85086 15.3158 1.54796 15.1053 1.29044C14.8948 1.03292 14.6284 0.827676 14.3267 0.690588C14.025 0.553499 13.6961 0.488239 13.3654 0.499853H7.74933L7.28529 3.16785H10.8072C10.8486 3.1662 10.8898 3.17418 10.9276 3.19115C10.9654 3.20813 10.9988 3.23366 11.0253 3.26576C11.0517 3.29786 11.0705 3.33567 11.0801 3.37626C11.0898 3.41686 11.09 3.45915 11.0809 3.49985L10.2639 8.16785C10.2478 8.26177 10.199 8.34682 10.1263 8.40769C10.0536 8.46855 9.96173 8.50124 9.86724 8.49985H6.34532L5.87732 11.1679H7.97937L8.82415 16.4999H13.2266L12.3897 11.1679H12.5563C13.0004 11.1508 13.426 10.9839 13.7647 10.6937C14.1035 10.4036 14.3358 10.0071 14.4243 9.56785L15.5428 3.16385Z" fill="white"/>
<path d="M108.204 16.5H48.4899L51.286 0.5H111L108.204 16.5Z" fill="url(#paint0_linear_1257_127136)"/>
<path d="M61.5859 5.26776L61.1893 7.44776L60.1422 8.39576L60.8561 9.33976L60.4595 11.7398C60.3851 12.3117 60.1192 12.8409 59.7059 13.2398C59.2936 13.6007 58.7603 13.7895 58.2147 13.7678H53.4553L55.0973 4.37576L54.8038 3.24776H60.055C60.2985 3.22423 60.544 3.25989 60.771 3.35176C60.9981 3.44362 61.2 3.58902 61.3598 3.77576C61.4977 3.99521 61.5889 4.24108 61.6278 4.49788C61.6667 4.75467 61.6525 5.01681 61.5859 5.26776V5.26776ZM58.9841 6.92376L59.1824 5.79576C59.226 5.54376 59.1309 5.41976 58.8968 5.41976H57.2192L56.89 7.29976H58.5716C58.6755 7.30414 58.777 7.26719 58.8541 7.19686C58.9313 7.12653 58.978 7.02846 58.9841 6.92376V6.92376ZM58.2385 11.2038L58.4725 9.85176C58.5161 9.59976 58.4209 9.47576 58.1869 9.47576H56.5092L56.1404 11.5798H57.822C57.9266 11.5852 58.0291 11.5488 58.1071 11.4783C58.1851 11.4079 58.2323 11.3092 58.2385 11.2038V11.2038Z" fill="white"/>
<path d="M64.7816 13.8323C64.5346 13.858 64.2852 13.823 64.0545 13.7304C63.8238 13.6378 63.6188 13.4902 63.4569 13.3003C63.317 13.0796 63.2245 12.8316 63.1856 12.5725C63.1466 12.3135 63.1621 12.049 63.2308 11.7963L64.385 5.18834C64.4672 4.61885 64.7384 4.09429 65.1544 3.70034C65.5617 3.34107 66.089 3.15096 66.6298 3.16834H69.5013C69.7483 3.14266 69.9978 3.17763 70.2284 3.27027C70.4591 3.36291 70.6641 3.51046 70.826 3.70034C70.965 3.92151 71.0569 4.16944 71.0959 4.42836C71.1348 4.68729 71.1199 4.95154 71.0521 5.20434L69.8939 11.8123C69.8174 12.3793 69.5533 12.9037 69.1443 13.3003C68.73 13.6601 68.1954 13.8474 67.6491 13.8243L64.7816 13.8323ZM65.6462 11.3003C65.6026 11.5483 65.6978 11.6763 65.9318 11.6763H67.2604C67.3616 11.6765 67.4591 11.6377 67.5328 11.5678C67.6065 11.4979 67.651 11.4022 67.657 11.3003L68.6287 5.74034C68.6724 5.49234 68.5772 5.36434 68.3432 5.36434H67.0264C66.9219 5.35888 66.8194 5.39534 66.7414 5.46578C66.6634 5.53622 66.6161 5.63492 66.61 5.74034L65.6462 11.3003Z" fill="white"/>
<path d="M81.1665 3.23975L78.1046 8.49975L79.3222 13.7597H76.8712L76.2207 10.2717L74.3487 13.7597H71.9056L74.9833 8.49975L73.7459 3.23975H76.1969L76.8513 6.71175L78.7154 3.23975H81.1665Z" fill="white"/>
<path d="M86.4048 3.23975L84.5645 13.7597H82.2562L83.8982 4.36775L83.6047 3.23975H86.4048Z" fill="white"/>
<path d="M94.294 3.23975H96.6063L94.766 13.7597H92.5965L91.0101 8.31975L90.0582 13.7597H87.7499L89.3919 4.36775L89.0984 3.23975H91.7597L93.3263 8.67975L94.294 3.23975Z" fill="white"/>
<path d="M99.5048 13.76C99.2607 13.7832 99.0147 13.7474 98.7871 13.6555C98.5595 13.5637 98.3568 13.4185 98.196 13.232C98.0564 13.0118 97.9638 12.7647 97.9242 12.5064C97.8846 12.2482 97.8988 11.9844 97.9659 11.732L99.0963 5.26798C99.1716 4.69628 99.4373 4.16738 99.8498 3.76798C100.262 3.40702 100.796 3.2182 101.341 3.23998H106.243L104.744 5.41998H101.73C101.629 5.41979 101.531 5.45862 101.457 5.52852C101.384 5.59842 101.339 5.6941 101.333 5.79598L100.385 11.204C100.342 11.456 100.437 11.58 100.671 11.58H102.325L103.082 7.29998H105.394L104.264 13.76H99.5048Z" fill="white"/>
</g>
<defs>
<linearGradient id="paint0_linear_1257_127136" x1="48.4899" y1="8.5" x2="111" y2="8.5" gradientUnits="userSpaceOnUse">
<stop stop-color="#C96B4F"/>
<stop offset="0.5" stop-color="#EEAB83"/>
<stop offset="1" stop-color="#A7583F"/>
</linearGradient>
<clipPath id="clip0_1257_127136">
<rect width="111" height="16" fill="white" transform="translate(0 0.5)"/>
</clipPath>
</defs>
</svg>
