<svg width="1804" height="618" viewBox="0 0 1804 618" fill="none" xmlns="http://www.w3.org/2000/svg">
<g opacity="0.4" clip-path="url(#clip0_1732_37500)">
<path d="M977.263 412.258L961.379 502.27C959.866 509.078 953.058 515.129 946.251 515.129H809.341L791.188 618H1009.79C1066.52 618 1120.98 571.859 1130.81 515.129L1148.97 412.258H977.263Z" stroke="white"/>
<path d="M900.138 0.753906L881.984 103.625H1018.89C1025.7 103.625 1031 109.676 1029.48 116.484L1013.6 206.496H1184.55L1202.7 103.625C1213.29 46.8946 1175.47 0.753906 1118.74 0.753906H900.138Z" stroke="white"/>
<path d="M770.027 617.226H701.194C644.464 617.226 606.644 571.086 616.477 514.355L689.092 102.871C698.925 46.1407 753.386 0 810.117 0L878.949 0L770.027 617.226Z" stroke="white"/>
<path d="M1577.11 412.258L1561.22 502.27C1559.71 509.078 1552.9 515.129 1546.09 515.129H1409.19L1391.03 618H1609.63C1666.36 618 1720.82 571.859 1730.66 515.129L1748.81 412.258H1577.11Z" stroke="white"/>
<path d="M1499.18 0.753906L1481.02 103.625H1617.93C1624.74 103.625 1630.04 109.676 1628.52 116.484L1612.64 206.496H1783.59L1801.74 103.625C1812.33 46.8946 1774.51 0.753906 1717.78 0.753906H1499.18Z" stroke="white"/>
<path d="M1369.09 617.226H1301.01C1244.28 617.226 1206.46 571.086 1216.3 514.355L1288.91 102.871C1298.75 46.1407 1353.21 0 1409.94 0L1478.77 0L1369.09 617.226Z" stroke="white"/>
<path d="M0 617.224H170.948L279.87 0.753906H86.9866L97.5763 64.2919L0 617.224Z" stroke="white"/>
<path d="M604.363 103.625C614.196 46.8946 576.376 0.753906 519.646 0.753906H301.045L282.891 103.625H419.8C426.608 103.625 431.903 109.676 430.39 116.484L398.621 296.508C397.108 303.316 390.3 309.367 383.493 309.367H246.583L228.43 412.238H310.121L342.647 617.98H514.351L481.825 412.238H487.877C521.915 412.238 554.44 384.251 560.491 350.213L604.363 103.625Z" stroke="white"/>
</g>
<defs>
<clipPath id="clip0_1732_37500">
<rect width="1803.52" height="618" fill="white"/>
</clipPath>
</defs>
</svg>
