<svg width="232" height="40" viewBox="0 0 232 40" fill="none" xmlns="http://www.w3.org/2000/svg">
<g clip-path="url(#clip0_704_9454)">
<path d="M63.42 26.67L62.42 32.5C62.3795 32.7348 62.2565 32.9475 62.0732 33.0996C61.8899 33.2518 61.6582 33.3335 61.42 33.33H52.53L51.35 40H65.51C67.3758 39.9349 69.1651 39.2419 70.588 38.0332C72.0108 36.8244 72.984 35.1708 73.35 33.34L74.52 26.67H63.42Z" fill="white"/>
<path d="M58.41 3.96133e-05L57.23 6.67004H66.11C66.2143 6.66592 66.3181 6.68585 66.4134 6.72829C66.5088 6.77074 66.5931 6.83455 66.6598 6.9148C66.7265 6.99505 66.7738 7.08958 66.7982 7.19106C66.8225 7.29255 66.8231 7.39827 66.8 7.50004L65.8 13.33H76.9L78.08 6.66004C78.2684 5.84451 78.2661 4.99652 78.0732 4.18204C77.8803 3.36756 77.5021 2.60858 76.968 1.96415C76.4339 1.31972 75.7582 0.807233 74.9937 0.466569C74.2292 0.125905 73.3963 -0.0337464 72.56 3.96133e-05H58.41Z" fill="white"/>
<path d="M50 40H45.52C44.6831 40.0358 43.8492 39.8776 43.0837 39.5375C42.3181 39.1975 41.6416 38.685 41.107 38.04C40.5725 37.3951 40.1944 36.6352 40.0023 35.8198C39.8103 35.0045 39.8095 34.1557 40 33.34L44.7 6.66C45.0676 4.82275 46.0467 3.1642 47.4777 1.95474C48.9087 0.745286 50.7072 0.0562598 52.58 0L57 0L50 40Z" fill="white"/>
<path d="M102.28 26.67L101.28 32.5C101.24 32.7348 101.117 32.9475 100.933 33.0996C100.75 33.2518 100.518 33.3335 100.28 33.33H91.39L90.21 40H104.37C106.236 39.9349 108.025 39.2419 109.448 38.0332C110.871 36.8244 111.844 35.1708 112.21 33.34L113.38 26.67H102.28Z" fill="white"/>
<path d="M97.27 5.72857e-06L96.09 6.67001H105C105.104 6.66588 105.208 6.68581 105.303 6.72826C105.399 6.7707 105.483 6.83452 105.55 6.91477C105.616 6.99502 105.664 7.08955 105.688 7.19103C105.712 7.29252 105.713 7.39824 105.69 7.50001L104.69 13.33H115.79L116.97 6.66001C117.159 5.84192 117.156 4.99115 116.962 4.1743C116.767 3.35746 116.387 2.59672 115.849 1.95166C115.311 1.3066 114.632 0.794737 113.864 0.456147C113.095 0.117557 112.259 -0.0385655 111.42 5.72857e-06H97.27Z" fill="white"/>
<path d="M88.83 40H84.38C83.5464 40.0295 82.7172 39.8665 81.9567 39.5238C81.1963 39.181 80.525 38.6676 79.995 38.0235C79.465 37.3794 79.0906 36.6218 78.9007 35.8096C78.7108 34.9974 78.7105 34.1523 78.9 33.34L83.6 6.66C83.966 4.82924 84.9392 3.17561 86.3621 1.96689C87.7849 0.758165 89.5742 0.0651265 91.44 0L95.88 0L88.83 40Z" fill="white"/>
<path d="M0 40H11.1L18.16 0H5.67L6.32 4.14L0 40Z" fill="white"/>
<path d="M39.19 6.66C39.3776 5.84702 39.3757 5.00178 39.1845 4.18965C38.9932 3.37753 38.6177 2.62028 38.087 1.97647C37.5563 1.33266 36.8846 0.819557 36.1239 0.476835C35.3632 0.134114 34.5338 -0.0290374 33.7 -4.86616e-08H19.54L18.37 6.67H27.25C27.3543 6.66588 27.4581 6.68581 27.5534 6.72825C27.6488 6.7707 27.7331 6.83451 27.7998 6.91476C27.8665 6.99501 27.9138 7.08954 27.9382 7.19103C27.9625 7.29251 27.9631 7.39823 27.94 7.5L25.88 19.17C25.8395 19.4048 25.7165 19.6174 25.5332 19.7696C25.3499 19.9218 25.1182 20.0035 24.88 20H16L14.82 26.67H20.12L22.25 40H33.35L31.24 26.67H31.66C32.7798 26.6275 33.8528 26.2101 34.7069 25.4847C35.561 24.7593 36.1467 23.7681 36.37 22.67L39.19 6.66Z" fill="white"/>
<path d="M225.15 40H122.13L129.18 0H232.2L225.15 40Z" fill="url(#paint0_linear_704_9454)"/>
<path d="M148.68 17.26L145.17 6.67004H137.83L138.58 9.52004L134.38 33.33H140.29L143.05 17.71L146.73 28.3L154.15 17.71L151.39 33.33H157.3L162 6.67004H155.92L148.68 17.26Z" fill="white"/>
<path d="M179.76 17.26L176.25 6.67004H168.91L169.66 9.52004L165.46 33.33H171.37L174.13 17.71L177.81 28.3L185.23 17.71L182.47 33.33H188.38L193.08 6.67004H187L179.76 17.26Z" fill="white"/>
<path d="M213.84 6.67004H204.06L204.81 9.52004L195.17 33.33H201.26L203.26 27.81H209.14V33.33H215.23L213.84 6.67004ZM205.21 22.29L208.82 12.19H209L209.05 22.29H205.21Z" fill="white"/>
</g>
<defs>
<linearGradient id="paint0_linear_704_9454" x1="232.2" y1="0" x2="206.519" y2="70.6674" gradientUnits="userSpaceOnUse">
<stop stop-color="#F75147"/>
<stop offset="1" stop-color="#E04141"/>
</linearGradient>
<clipPath id="clip0_704_9454">
<rect width="232" height="40" fill="white"/>
</clipPath>
</defs>
</svg>
