<svg width="223" height="32" viewBox="0 0 223 32" fill="none" xmlns="http://www.w3.org/2000/svg">
<g clip-path="url(#clip0_868_13477)">
<path d="M50.5329 21.3359L49.7361 25.9999C49.7038 26.1878 49.6058 26.3579 49.4598 26.4796C49.3137 26.6013 49.1291 26.6667 48.9393 26.6639H41.8557L40.9155 31.9999H52.1982C53.6849 31.9478 55.1106 31.3934 56.2443 30.4264C57.378 29.4594 58.1535 28.1365 58.4451 26.6719L59.3773 21.3359H50.5329Z" fill="white"/>
<path d="M46.5403 0.000373487L45.6001 5.33637H52.6757C52.7588 5.33307 52.8415 5.34902 52.9174 5.38298C52.9934 5.41693 53.0606 5.46798 53.1137 5.53218C53.1669 5.59638 53.2046 5.67201 53.224 5.75319C53.2434 5.83438 53.2439 5.91896 53.2255 6.00037L52.4287 10.6644H61.2731L62.2133 5.32837C62.3635 4.67595 62.3616 3.99755 62.2079 3.34597C62.0542 2.69439 61.7529 2.0872 61.3273 1.57166C60.9017 1.05612 60.3634 0.646128 59.7542 0.373597C59.145 0.101066 58.4814 -0.0266553 57.815 0.000373487H46.5403Z" fill="white"/>
<path d="M39.8402 32H36.2705C35.6037 32.0287 34.9392 31.902 34.3292 31.63C33.7192 31.358 33.1802 30.948 32.7542 30.432C32.3283 29.9161 32.027 29.3082 31.874 28.6559C31.721 28.0036 31.7204 27.3246 31.8722 26.672L35.6171 5.328C35.91 3.8582 36.6901 2.53136 37.8304 1.56379C38.9706 0.596228 40.4037 0.0450078 41.8959 0L45.4178 0L39.8402 32Z" fill="white"/>
<path d="M81.4963 21.3359L80.6995 25.9999C80.6672 26.1878 80.5692 26.3579 80.4231 26.4796C80.2771 26.6013 80.0925 26.6667 79.9027 26.6639H72.8191L71.8789 31.9999H83.1616C84.6483 31.9478 86.0739 31.3934 87.2077 30.4264C88.3414 29.4594 89.1169 28.1365 89.4085 26.6719L90.3407 21.3359H81.4963Z" fill="white"/>
<path d="M77.5032 -4.42453e-05L76.563 5.33596H83.6625C83.7456 5.33266 83.8283 5.3486 83.9042 5.38256C83.9802 5.41651 84.0474 5.46757 84.1005 5.53177C84.1537 5.59597 84.1914 5.67159 84.2108 5.75278C84.2302 5.83396 84.2307 5.91854 84.2123 5.99996L83.4155 10.664H92.2599L93.2001 5.32796C93.3509 4.67349 93.3487 3.99287 93.1937 3.33939C93.0388 2.68592 92.7353 2.07733 92.3069 1.56128C91.8786 1.04523 91.3371 0.635741 90.7249 0.364869C90.1126 0.0939965 89.4463 -0.0309013 88.7779 -4.42453e-05H77.5032Z" fill="white"/>
<path d="M70.7782 32H67.2325C66.5683 32.0236 65.9076 31.8932 65.3016 31.619C64.6957 31.3448 64.1608 30.9341 63.7385 30.4188C63.3162 29.9035 63.0179 29.2975 62.8665 28.6477C62.7152 27.9979 62.7151 27.3219 62.866 26.672L66.611 5.328C66.9026 3.86339 67.678 2.54049 68.8118 1.57351C69.9455 0.606532 71.3712 0.0521012 72.8579 0L76.3957 0L70.7782 32Z" fill="white"/>
<path d="M-0.00146484 32H8.843L14.4684 0H4.51638L5.0343 3.312L-0.00146484 32Z" fill="white"/>
<path d="M31.2256 5.32746C31.3751 4.67708 31.3736 4.00089 31.2212 3.35119C31.0688 2.70148 30.7696 2.09568 30.3467 1.58064C29.9239 1.06559 29.3887 0.655108 28.7825 0.380931C28.1764 0.106754 27.5156 -0.023767 26.8512 -0.000537148H15.5685L14.6363 5.33546H21.7118C21.7949 5.33216 21.8776 5.34811 21.9536 5.38206C22.0296 5.41602 22.0967 5.46707 22.1499 5.53127C22.203 5.59547 22.2408 5.67109 22.2601 5.75228C22.2795 5.83347 22.28 5.91805 22.2616 5.99946L20.6202 15.3355C20.588 15.5233 20.49 15.6934 20.3439 15.8151C20.1978 15.9369 20.0132 16.0022 19.8234 15.9995H12.7478L11.8076 21.3355H16.0307L17.7278 31.9995H26.5723L24.891 21.3355H25.2257C26.1179 21.3014 26.9729 20.9675 27.6535 20.3872C28.334 19.8069 28.8007 19.0139 28.9786 18.1355L31.2256 5.32746Z" fill="white"/>
<path d="M217.382 32H97.4165L103.034 0H223L217.382 32Z" fill="url(#paint0_linear_868_13477)"/>
<path d="M123.726 9.53528L122.93 13.8953L120.826 15.7913L122.26 17.6793L121.464 22.4793C121.314 23.6232 120.78 24.6816 119.95 25.4793C119.121 26.2012 118.05 26.5788 116.954 26.5353H107.392L110.691 7.75128L110.101 5.49528H120.651C121.14 5.44822 121.633 5.51954 122.089 5.70327C122.546 5.887 122.951 6.17779 123.272 6.55128C123.549 6.99017 123.733 7.48192 123.811 7.99551C123.889 8.5091 123.86 9.03338 123.726 9.53528ZM118.499 12.8473L118.898 10.5913C118.986 10.0873 118.794 9.83928 118.324 9.83928H114.954L114.292 13.5993H117.671C117.88 13.608 118.083 13.5341 118.238 13.3935C118.393 13.2528 118.487 13.0567 118.499 12.8473ZM117.001 21.4073L117.472 18.7033C117.559 18.1993 117.368 17.9513 116.898 17.9513H113.527L112.786 22.1593H116.165C116.375 22.1702 116.581 22.0973 116.738 21.9564C116.894 21.8155 116.989 21.6181 117.001 21.4073Z" fill="white"/>
<path d="M130.147 26.6647C129.651 26.716 129.15 26.6461 128.686 26.4608C128.223 26.2755 127.811 25.9804 127.486 25.6007C127.205 25.1591 127.019 24.6632 126.941 24.1451C126.862 23.6269 126.893 23.0981 127.032 22.5927L129.35 9.37668C129.515 8.23769 130.06 7.18858 130.896 6.40068C131.714 5.68215 132.774 5.30192 133.86 5.33668H139.629C140.125 5.28532 140.626 5.35526 141.09 5.54054C141.553 5.72582 141.965 6.02093 142.29 6.40068C142.57 6.84302 142.754 7.33887 142.832 7.85672C142.911 8.37457 142.881 8.90309 142.744 9.40868L140.418 22.6247C140.264 23.7587 139.733 24.8073 138.912 25.6007C138.079 26.3202 137.005 26.6949 135.908 26.6487L130.147 26.6647ZM131.884 21.6007C131.796 22.0967 131.988 22.3527 132.458 22.3527H135.127C135.33 22.353 135.526 22.2754 135.674 22.1356C135.822 21.9958 135.912 21.8044 135.924 21.6007L137.876 10.4807C137.964 9.98468 137.772 9.72868 137.302 9.72868H134.657C134.447 9.71776 134.241 9.79069 134.084 9.93156C133.927 10.0724 133.833 10.2698 133.82 10.4807L131.884 21.6007Z" fill="white"/>
<path d="M163.064 5.47974L156.913 15.9997L159.359 26.5197H154.435L153.128 19.5437L149.367 26.5197H144.459L150.642 15.9997L148.156 5.47974H153.08L154.395 12.4237L158.14 5.47974H163.064Z" fill="white"/>
<path d="M173.588 5.47974L169.891 26.5197H165.253L168.552 7.73574L167.963 5.47974H173.588Z" fill="white"/>
<path d="M189.438 5.47974H194.083L190.386 26.5197H186.027L182.84 15.6397L180.928 26.5197H176.291L179.589 7.73574L179 5.47974H184.346L187.494 16.3597L189.438 5.47974Z" fill="white"/>
<path d="M199.906 26.52C199.416 26.5663 198.921 26.4947 198.464 26.3111C198.007 26.1274 197.6 25.837 197.277 25.464C196.996 25.0236 196.81 24.5294 196.731 24.0129C196.651 23.4963 196.68 22.9688 196.814 22.464L199.085 9.53595C199.237 8.39257 199.77 7.33475 200.599 6.53595C201.428 5.81404 202.499 5.4364 203.595 5.47995H213.444L210.432 9.83995H204.376C204.173 9.83958 203.977 9.91725 203.829 10.057C203.681 10.1968 203.591 10.3882 203.579 10.592L201.675 21.408C201.587 21.912 201.778 22.16 202.249 22.16H205.571L207.093 13.6H211.738L209.468 26.52H199.906Z" fill="white"/>
</g>
<defs>
<linearGradient id="paint0_linear_868_13477" x1="97.4165" y1="16" x2="223" y2="16" gradientUnits="userSpaceOnUse">
<stop stop-color="#C96B4F"/>
<stop offset="0.5" stop-color="#EEAB83"/>
<stop offset="1" stop-color="#A7583F"/>
</linearGradient>
<clipPath id="clip0_868_13477">
<rect width="223" height="32" fill="white"/>
</clipPath>
</defs>
</svg>
