<svg width="251" height="32" viewBox="0 0 251 32" fill="none" xmlns="http://www.w3.org/2000/svg">
<g clip-path="url(#clip0_868_13493)">
<path d="M51.1221 21.3361L50.316 26.0001C50.2834 26.1879 50.1842 26.358 50.0364 26.4797C49.8887 26.6015 49.7019 26.6668 49.5099 26.6641H42.3438L41.3926 32.0001H52.8068C54.3108 31.948 55.7531 31.3935 56.9001 30.4265C58.047 29.4596 58.8315 28.1367 59.1265 26.6721L60.0697 21.3361H51.1221Z" fill="white"/>
<path d="M47.0835 7.27642e-06L46.1323 5.33601H53.2904C53.3745 5.33271 53.4581 5.34865 53.535 5.38261C53.6118 5.41656 53.6798 5.46762 53.7336 5.53182C53.7873 5.59602 53.8255 5.67164 53.8451 5.75283C53.8647 5.83402 53.8652 5.91859 53.8466 6.00001L53.0405 10.664H61.9881L62.9393 5.32801C63.0911 4.67559 63.0893 3.99719 62.9338 3.34561C62.7783 2.69403 62.4734 2.08684 62.0429 1.5713C61.6123 1.05575 61.0677 0.645762 60.4514 0.373231C59.8352 0.1007 59.1638 -0.0270216 58.4897 7.27642e-06H47.0835Z" fill="white"/>
<path d="M40.3045 32H36.6932C36.0186 32.0287 35.3464 31.902 34.7293 31.63C34.1122 31.358 33.5669 30.948 33.136 30.432C32.7051 29.9161 32.4003 29.3082 32.2455 28.6559C32.0907 28.0036 32.09 27.3246 32.2436 26.672L36.0322 5.328C36.3285 3.8582 37.1178 2.53136 38.2713 1.56379C39.4248 0.596228 40.8746 0.0450078 42.3842 0L45.9471 0L40.3045 32Z" fill="white"/>
<path d="M82.4468 21.3361L81.6407 26.0001C81.6081 26.1879 81.5089 26.358 81.3611 26.4797C81.2134 26.6015 81.0266 26.6668 80.8346 26.6641H73.6685L72.7173 32.0001H84.1315C85.6355 31.948 87.0778 31.3935 88.2248 30.4265C89.3718 29.4596 90.1563 28.1367 90.4512 26.6721L91.3944 21.3361H82.4468Z" fill="white"/>
<path d="M78.4082 -4.42453e-05L77.457 5.33596H84.6393C84.7233 5.33266 84.807 5.3486 84.8839 5.38256C84.9607 5.41651 85.0287 5.46757 85.0825 5.53177C85.1362 5.59597 85.1744 5.67159 85.194 5.75278C85.2136 5.83396 85.2141 5.91854 85.1955 5.99996L84.3894 10.664H93.337L94.2882 5.32796C94.4407 4.67349 94.4385 3.99287 94.2817 3.33939C94.1249 2.68592 93.8179 2.07733 93.3846 1.56128C92.9512 1.04523 92.4035 0.635741 91.7841 0.364869C91.1647 0.0939965 90.4905 -0.0309013 89.8144 -4.42453e-05H78.4082Z" fill="white"/>
<path d="M71.6047 32H68.0176C67.3457 32.0236 66.6773 31.8932 66.0643 31.619C65.4513 31.3448 64.9102 30.9341 64.4829 30.4188C64.0557 29.9035 63.7539 29.2975 63.6008 28.6477C63.4477 27.9979 63.4475 27.3219 63.6003 26.672L67.3889 5.328C67.6839 3.86339 68.4684 2.54049 69.6153 1.57351C70.7623 0.606532 72.2046 0.0521012 73.7086 0L77.2876 0L71.6047 32Z" fill="white"/>
<path d="M0 32H8.94759L14.6386 0H4.57053L5.09448 3.312L0 32Z" fill="white"/>
<path d="M31.5907 5.32795C31.7419 4.67757 31.7404 4.00138 31.5862 3.35167C31.432 2.70197 31.1293 2.09617 30.7016 1.58113C30.2738 1.06608 29.7323 0.655597 29.1191 0.381419C28.5059 0.107242 27.8374 -0.0232787 27.1652 -4.88672e-05H15.751L14.8079 5.33595H21.966C22.05 5.33265 22.1337 5.3486 22.2106 5.38255C22.2874 5.41651 22.3554 5.46756 22.4091 5.53176C22.4629 5.59596 22.5011 5.67158 22.5207 5.75277C22.5403 5.83396 22.5408 5.91854 22.5222 5.99995L20.8616 15.3359C20.829 15.5238 20.7299 15.6939 20.5821 15.8156C20.4343 15.9374 20.2476 16.0027 20.0555 16H12.8975L11.9463 21.336H16.2186L17.9355 32H26.8831L25.1823 21.336H25.5208C26.4235 21.3019 27.2884 20.968 27.9769 20.3877C28.6654 19.8074 29.1375 19.0144 29.3175 18.136L31.5907 5.32795Z" fill="white"/>
<path d="M245.317 32H98.4478L104.131 0H251L245.317 32Z" fill="#225BBB"/>
<path d="M116.448 9.75198L115.77 13.6H122.832L119.607 18.024H115.005L113.457 26.704H108.387L111.772 7.65598L111.103 5.37598H125.83L122.606 9.79198L116.448 9.75198Z" fill="white"/>
<path d="M133.11 26.6641L133.029 22.2481H127.999L126.387 26.6641H121.171L129.232 7.61606L128.563 5.33606H136.947L138.373 26.6641H133.11ZM129.643 17.8641H132.956L132.827 9.78406H132.642L129.643 17.8641Z" fill="white"/>
<path d="M148.949 5.33606L145.161 26.6641H140.09L143.484 7.61606L142.815 5.33606H148.949Z" fill="white"/>
<path d="M162.895 26.664H157.671L156.543 20.056H154.237L153.068 26.664H147.998L151.384 7.616L150.739 5.336H162.258C162.783 5.28936 163.313 5.36079 163.807 5.54499C164.301 5.72918 164.747 6.02142 165.111 6.4C165.42 6.83834 165.627 7.33856 165.719 7.86527C165.811 8.39197 165.785 8.9323 165.643 9.448L164.491 15.936C164.416 16.7535 164.117 17.5352 163.627 18.1965C163.137 18.8578 162.474 19.3735 161.71 19.688L162.895 26.664ZM155.027 15.632H158.711C158.821 15.6453 158.933 15.6359 159.04 15.6042C159.146 15.5725 159.245 15.5193 159.33 15.448C159.415 15.3766 159.484 15.2886 159.533 15.1894C159.581 15.0903 159.609 14.9822 159.614 14.872L160.42 10.512C160.509 10.008 160.299 9.712 159.791 9.712H156.099L155.027 15.632Z" fill="white"/>
<path d="M179.065 9.75206H172.922L172.245 13.6001H179.306L176.082 18.0241H171.455L169.916 26.7041H164.845L168.231 7.65606L167.562 5.37606H182.305L179.065 9.75206ZM189.544 5.33606L185.755 26.6641H180.685L184.07 7.61606L183.401 5.33606H189.544Z" fill="white"/>
<path d="M192.655 26.664C192.12 26.7193 191.58 26.6522 191.075 26.4677C190.571 26.2833 190.116 25.9864 189.745 25.6C189.437 25.1616 189.229 24.6614 189.137 24.1347C189.046 23.608 189.071 23.0677 189.213 22.552L191.543 9.44798C191.699 8.27441 192.27 7.19413 193.155 6.39998C194.065 5.66995 195.21 5.29194 196.379 5.33598H207.165L203.94 9.75197H197.338C197.225 9.73833 197.109 9.74889 197 9.78294C196.891 9.81699 196.79 9.87375 196.705 9.94944C196.619 10.0251 196.551 10.118 196.505 10.2219C196.458 10.3258 196.435 10.4383 196.436 10.552L194.485 21.528C194.396 22.032 194.606 22.288 195.114 22.288H198.797L200.329 13.6H205.391L203.07 26.704L192.655 26.664Z" fill="white"/>
<path d="M219.296 5.33606H224.367L220.578 26.6641H215.508L217.072 17.8641H212.622L211.058 26.6641H205.988L209.373 7.61606L208.704 5.33606H214.847L213.404 13.4401H217.861L219.296 5.33606Z" fill="white"/>
<path d="M225.85 9.75206L226.656 5.33606H241.246L240.44 9.75206H235.676L232.67 26.6641H227.607L230.614 9.75206H225.85Z" fill="white"/>
</g>
<defs>
<clipPath id="clip0_868_13493">
<rect width="251" height="32" fill="white"/>
</clipPath>
</defs>
</svg>
