<svg width="181" height="32" viewBox="0 0 181 32" fill="none" xmlns="http://www.w3.org/2000/svg">
<g clip-path="url(#clip0_868_13455)">
<path d="M49.4792 21.3359L48.699 25.9999C48.6674 26.1878 48.5715 26.3579 48.4285 26.4796C48.2854 26.6013 48.1047 26.6667 47.9188 26.6639H40.9831L40.0625 31.9999H51.1097C52.5654 31.9478 53.9613 31.3934 55.0714 30.4264C56.1815 29.4594 56.9408 28.1365 57.2263 26.6719L58.1391 21.3359H49.4792Z" fill="#A3A5A5"/>
<path d="M45.569 -0.000358935L44.6484 5.33564H51.5764C51.6577 5.33234 51.7387 5.34829 51.8131 5.38224C51.8875 5.4162 51.9532 5.46725 52.0053 5.53145C52.0573 5.59565 52.0943 5.67127 52.1132 5.75246C52.1322 5.83365 52.1327 5.91823 52.1147 5.99964L51.3345 10.6636H59.9944L60.915 5.32764C61.062 4.67522 61.0602 3.99682 60.9097 3.34524C60.7592 2.69366 60.4642 2.08647 60.0475 1.57093C59.6308 1.05539 59.1037 0.645396 58.5072 0.372865C57.9107 0.100333 57.261 -0.0273878 56.6085 -0.000358935H45.569Z" fill="#A3A5A5"/>
<path d="M39.0104 32H35.5152C34.8623 32.0287 34.2117 31.902 33.6145 31.63C33.0172 31.358 32.4894 30.948 32.0723 30.432C31.6553 29.9161 31.3603 29.3082 31.2105 28.6559C31.0607 28.0036 31.06 27.3246 31.2087 26.672L34.8755 5.328C35.1622 3.8582 35.9261 2.53136 37.0425 1.56379C38.159 0.596228 39.5621 0.0450078 41.0232 0L44.4716 0L39.0104 32Z" fill="#A3A5A5"/>
<path d="M79.7956 21.3359L79.0154 25.9999C78.9838 26.1878 78.8879 26.3579 78.7449 26.4796C78.6018 26.6013 78.4211 26.6667 78.2352 26.6639H71.2995L70.3789 31.9999H81.4262C82.8818 31.9478 84.2777 31.3934 85.3878 30.4264C86.4979 29.4594 87.2572 28.1365 87.5427 26.6719L88.4555 21.3359H79.7956Z" fill="#A3A5A5"/>
<path d="M75.8854 0.000688177L74.9648 5.33669H81.9162C81.9975 5.33339 82.0785 5.34933 82.1529 5.38329C82.2273 5.41725 82.2931 5.4683 82.3451 5.5325C82.3971 5.5967 82.4341 5.67232 82.4531 5.75351C82.472 5.8347 82.4725 5.91927 82.4545 6.00069L81.6743 10.6647H90.3342L91.2548 5.32869C91.4025 4.67422 91.4003 3.9936 91.2486 3.34012C91.0969 2.68665 90.7997 2.07806 90.3803 1.56201C89.9609 1.04597 89.4307 0.636473 88.8312 0.365601C88.2318 0.094729 87.5793 -0.0301688 86.9249 0.000688177H75.8854Z" fill="#A3A5A5"/>
<path d="M69.3032 32H65.8314C65.181 32.0236 64.5341 31.8932 63.9408 31.619C63.3475 31.3448 62.8238 30.9341 62.4104 30.4188C61.9969 29.9035 61.7047 29.2975 61.5566 28.6477C61.4084 27.9979 61.4082 27.3219 61.556 26.672L65.2229 5.328C65.5084 3.86339 66.2676 2.54049 67.3777 1.57351C68.4878 0.606532 69.8837 0.0521012 71.3394 0L74.8034 0L69.3032 32Z" fill="#A3A5A5"/>
<path d="M0 32H8.65991L14.1679 0H4.42358L4.93069 3.312L0 32Z" fill="#A3A5A5"/>
<path d="M30.5753 5.32868C30.7217 4.6783 30.7202 4.00211 30.571 3.35241C30.4218 2.7027 30.1288 2.0969 29.7148 1.58186C29.3007 1.06681 28.7767 0.656329 28.1832 0.382152C27.5897 0.107975 26.9427 -0.0225463 26.2922 0.000683555H15.2449L14.3321 5.33668H21.26C21.3414 5.33338 21.4224 5.34933 21.4968 5.38329C21.5712 5.41724 21.6369 5.46829 21.689 5.53249C21.741 5.59669 21.778 5.67232 21.7969 5.7535C21.8159 5.83469 21.8164 5.91927 21.7984 6.00068L20.1912 15.3367C20.1596 15.5245 20.0637 15.6946 19.9206 15.8164C19.7776 15.9381 19.5969 16.0035 19.411 16.0007H12.4831L11.5625 21.3367H15.6974L17.3592 32.0007H26.0191L24.3729 21.3367H24.7006C25.5742 21.3027 26.4113 20.9687 27.0777 20.3884C27.7441 19.8081 28.201 19.0152 28.3752 18.1367L30.5753 5.32868Z" fill="#A3A5A5"/>
<path d="M175.655 32H95.2812L100.781 0H181.155L175.655 32Z" fill="#A3A5A5"/>
<path d="M115.996 13.8079L113.258 5.33594H107.531L108.117 7.61594L104.84 26.6639H109.451L111.604 14.1679L114.475 22.6399L120.264 14.1679L118.111 26.6639H122.721L126.388 5.33594H121.645L115.996 13.8079Z" fill="#1A1C1C"/>
<path d="M140.242 13.8079L137.504 5.33594H131.778L132.363 7.61594L129.086 26.6639H133.697L135.85 14.1679L138.721 22.6399L144.51 14.1679L142.357 26.6639H146.967L150.634 5.33594H145.891L140.242 13.8079Z" fill="#1A1C1C"/>
<path d="M166.831 5.33594H159.201L159.786 7.61594L152.266 26.6639H157.017L158.577 22.2479H163.165V26.6639H167.916L166.831 5.33594ZM160.099 17.8319L162.915 9.75194H163.055L163.094 17.8319H160.099Z" fill="#1A1C1C"/>
</g>
<defs>
<clipPath id="clip0_868_13455">
<rect width="181" height="32" fill="white"/>
</clipPath>
</defs>
</svg>
