<svg width="32" height="32" viewBox="0 0 32 32" fill="none" xmlns="http://www.w3.org/2000/svg">
<path d="M14.6227 3.40924C12.008 3.40924 9.50028 4.41648 7.65135 6.20937C5.80242 8.00226 4.76369 10.4339 4.76367 12.9695C4.76367 15.505 5.80239 17.9367 7.65132 19.7296C9.50026 21.5225 12.008 22.5298 14.6227 22.5298C17.2375 22.5298 19.7452 21.5225 21.5942 19.7296C23.4431 17.9367 24.4818 15.505 24.4818 12.9695C24.4818 10.4339 23.4431 8.00226 21.5941 6.20937C19.7452 4.41648 17.2375 3.40924 14.6227 3.40924ZM14.6227 5.07098C15.715 5.07098 16.7966 5.27528 17.8057 5.67221C18.8148 6.06915 19.7317 6.65095 20.504 7.38439C21.2763 8.11783 21.889 8.98856 22.307 9.94685C22.725 10.9051 22.9401 11.9322 22.9401 12.9695C22.9401 14.0067 22.725 15.0338 22.307 15.9921C21.889 16.9504 21.2763 17.8211 20.504 18.5546C19.7317 19.288 18.8148 19.8698 17.8057 20.2667C16.7966 20.6637 15.715 20.868 14.6227 20.868C12.4169 20.868 10.3013 20.0358 8.74153 18.5545C7.18174 17.0733 6.30546 15.0643 6.30546 12.9695C6.30546 10.8747 7.18174 8.86567 8.74153 7.38442C10.3013 5.90316 12.4169 5.071 14.6227 5.07098Z" fill="#53534F"/>
<path d="M26.3802 24.9283L21.927 19.9222C21.1594 19.0593 20.2226 18.7591 19.8347 19.2517C19.4468 19.7443 19.7546 20.8432 20.5223 21.7062L24.9754 26.7122C25.7431 27.5752 26.6798 27.8754 27.0677 27.3828C27.4556 26.8902 27.1478 25.7913 26.3802 24.9283Z" fill="#53534F"/>
</svg>
